<?xml version="1.0" encoding="UTF-8"?>
<svg width="1920px" height="1080px" viewBox="0 0 1920 1080" version="1.1" xmlns="http://www.w3.org/2000/svg" xmlns:xlink="http://www.w3.org/1999/xlink">
    <!-- Generator: Sketch 49 (51002) - http://www.bohemiancoding.com/sketch -->
    <title>Artboard Copy 29</title>
    <desc>Created with Sketch.</desc>
    <defs></defs>
    <g id="Artboard-Copy-29" stroke="none" stroke-width="1" fill="none" fill-rule="evenodd">
        <rect id="Rectangle-6" fill="#AF0556" x="0" y="0" width="480" height="1080"></rect>
        <rect id="Rectangle-6-Copy" fill="#121212" x="480" y="0" width="480" height="1080"></rect>
        <rect id="Rectangle-6-Copy-2" fill="#F1EDEF" x="960" y="0" width="480" height="1080"></rect>
        <rect id="Rectangle-6-Copy-3" fill="#FFFFFF" x="1440" y="0" width="480" height="1080"></rect>
        <path d="M67.022,96 L59.57,82.66 L54.694,82.66 L54.694,96 L50.14,96 L50.14,63.386 L62.422,63.386 C68.586,63.386 72.404,67.71 72.404,73.092 C72.404,77.784 69.414,81.418 64.492,82.338 L72.266,96 L67.022,96 Z M54.694,78.612 L61.594,78.612 C65.274,78.612 67.758,76.45 67.758,73.092 C67.758,69.642 65.274,67.434 61.594,67.434 L54.694,67.434 L54.694,78.612 Z M76.2948334,90.066 C76.2948334,86.11 79.1928334,83.902 83.0108334,83.35 L88.9908334,82.476 C90.3248334,82.292 90.6928334,81.602 90.6928334,80.82 C90.6928334,78.658 89.2668334,76.864 85.9088334,76.864 C82.8728334,76.864 81.1708334,78.75 80.8948334,81.326 L76.7548334,80.36 C77.2148334,76.128 81.0328334,73.184 85.8168334,73.184 C92.4408334,73.184 95.0168334,76.956 95.0168334,81.28 L95.0168334,92.366 C95.0168334,94.298 95.2008334,95.448 95.2928334,96 L91.0608334,96 C90.9688334,95.448 90.8308334,94.62 90.8308334,93.01 C89.8648334,94.574 87.6568334,96.69 83.7008334,96.69 C79.1928334,96.69 76.2948334,93.562 76.2948334,90.066 Z M84.2988334,93.056 C87.8408334,93.056 90.6928334,91.354 90.6928334,86.524 L90.6928334,85.512 L83.9308334,86.524 C82.0908334,86.8 80.7108334,87.858 80.7108334,89.836 C80.7108334,91.492 82.0908334,93.056 84.2988334,93.056 Z M99.4136668,90.25 L103.323667,88.87 C103.599667,91.17 105.347667,93.01 108.475667,93.01 C110.913667,93.01 112.247667,91.63 112.247667,90.066 C112.247667,88.686 111.235667,87.628 109.395667,87.214 L105.623667,86.386 C102.173667,85.65 100.103667,83.304 100.103667,80.176 C100.103667,76.404 103.645667,73.184 107.969667,73.184 C114.041667,73.184 115.927667,77.14 116.387667,79.118 L112.569667,80.544 C112.385667,79.394 111.465667,76.864 107.969667,76.864 C105.761667,76.864 104.289667,78.29 104.289667,79.808 C104.289667,81.142 105.117667,82.108 106.819667,82.476 L110.407667,83.258 C114.409667,84.132 116.525667,86.57 116.525667,89.836 C116.525667,92.964 113.903667,96.69 108.429667,96.69 C102.357667,96.69 99.7816668,92.78 99.4136668,90.25 Z M126.3045,104.74 L122.0265,104.74 L122.0265,73.874 L126.2125,73.874 L126.2125,77.324 C127.4085,75.116 130.0305,73.368 133.6185,73.368 C140.2425,73.368 143.7845,78.474 143.7845,84.914 C143.7845,91.492 139.9665,96.598 133.4805,96.598 C130.0765,96.598 127.5005,94.988 126.3045,93.01 L126.3045,104.74 Z M139.3685,84.914 C139.3685,80.498 136.8845,77.186 132.8365,77.186 C128.8805,77.186 126.2585,80.498 126.2585,84.914 C126.2585,89.468 128.8805,92.734 132.8365,92.734 C136.8385,92.734 139.3685,89.468 139.3685,84.914 Z M153.333334,96 L149.055334,96 L149.055334,62.696 L153.333334,62.696 L153.333334,77.002 C154.391334,75.024 156.967334,73.23 160.647334,73.23 C167.363334,73.23 170.813334,78.382 170.813334,84.822 C170.813334,91.4 167.087334,96.598 160.509334,96.598 C157.243334,96.598 154.713334,95.172 153.333334,92.78 L153.333334,96 Z M166.397334,84.822 C166.397334,80.038 163.867334,77.048 159.865334,77.048 C156.047334,77.048 153.287334,80.038 153.287334,84.822 C153.287334,89.606 156.047334,92.734 159.865334,92.734 C163.821334,92.734 166.397334,89.606 166.397334,84.822 Z M178.890167,82.66 L190.988167,82.66 C190.896167,79.486 188.826167,77.002 184.916167,77.002 C181.282167,77.002 179.074167,79.808 178.890167,82.66 Z M191.632167,88.41 L195.358167,89.698 C194.116167,93.608 190.574167,96.69 185.422167,96.69 C179.488167,96.69 174.290167,92.366 174.290167,84.868 C174.290167,77.922 179.304167,73.184 184.870167,73.184 C191.678167,73.184 195.496167,77.876 195.496167,84.776 C195.496167,85.328 195.450167,85.88 195.404167,86.156 L178.752167,86.156 C178.844167,90.112 181.696167,92.872 185.422167,92.872 C189.010167,92.872 190.804167,90.894 191.632167,88.41 Z M213.049,73.644 L213.049,78.244 C212.405,78.152 211.761,78.106 211.163,78.106 C207.529,78.106 205.091,80.038 205.091,84.914 L205.091,96 L200.767,96 L200.767,73.874 L204.999,73.874 L204.999,77.738 C206.609,74.334 209.369,73.506 211.623,73.506 C212.221,73.506 212.819,73.598 213.049,73.644 Z M229.681834,73.644 L229.681834,78.244 C229.037834,78.152 228.393834,78.106 227.795834,78.106 C224.161834,78.106 221.723834,80.038 221.723834,84.914 L221.723834,96 L217.399834,96 L217.399834,73.874 L221.631834,73.874 L221.631834,77.738 C223.241834,74.334 226.001834,73.506 228.255834,73.506 C228.853834,73.506 229.451834,73.598 229.681834,73.644 Z M240.242667,105.246 L235.504667,105.246 L241.024667,93.562 L231.502667,73.874 L236.470667,73.874 L243.370667,89.146 L249.994667,73.874 L254.640667,73.874 L240.242667,105.246 Z" id="Raspberry" fill="#FFFFFF"></path>
        <path d="M530.14,63.386 L540.766,63.386 C546.976,63.386 550.61,67.066 550.61,72.218 C550.61,75.714 548.586,78.198 545.734,79.256 C549.46,80.176 551.622,83.488 551.622,87.122 C551.622,92.274 547.528,96 541.548,96 L530.14,96 L530.14,63.386 Z M534.648,77.646 L540.26,77.646 C543.894,77.646 546.056,75.484 546.056,72.448 C546.056,69.366 543.802,67.342 540.076,67.342 L534.648,67.342 L534.648,77.646 Z M534.648,92.044 L540.904,92.044 C544.538,92.044 547.022,90.02 547.022,86.846 C547.022,83.718 545.044,81.51 541.088,81.51 L534.648,81.51 L534.648,92.044 Z M561.446833,96 L557.122833,96 L557.122833,62.696 L561.446833,62.696 L561.446833,96 Z M567.177667,90.066 C567.177667,86.11 570.075667,83.902 573.893667,83.35 L579.873667,82.476 C581.207667,82.292 581.575667,81.602 581.575667,80.82 C581.575667,78.658 580.149667,76.864 576.791667,76.864 C573.755667,76.864 572.053667,78.75 571.777667,81.326 L567.637667,80.36 C568.097667,76.128 571.915667,73.184 576.699667,73.184 C583.323667,73.184 585.899667,76.956 585.899667,81.28 L585.899667,92.366 C585.899667,94.298 586.083667,95.448 586.175667,96 L581.943667,96 C581.851667,95.448 581.713667,94.62 581.713667,93.01 C580.747667,94.574 578.539667,96.69 574.583667,96.69 C570.075667,96.69 567.177667,93.562 567.177667,90.066 Z M575.181667,93.056 C578.723667,93.056 581.575667,91.354 581.575667,86.524 L581.575667,85.512 L574.813667,86.524 C572.973667,86.8 571.593667,87.858 571.593667,89.836 C571.593667,91.492 572.973667,93.056 575.181667,93.056 Z M601.6585,77.186 C598.1625,77.186 594.9425,79.762 594.9425,84.914 C594.9425,89.974 598.1165,92.688 601.7045,92.688 C605.8445,92.688 607.3625,89.882 607.8685,88.134 L611.6865,89.79 C610.6285,92.964 607.4545,96.69 601.7045,96.69 C595.2645,96.69 590.5265,91.63 590.5265,84.914 C590.5265,78.014 595.3565,73.184 601.6585,73.184 C607.5465,73.184 610.5825,76.864 611.5025,80.222 L607.5925,81.878 C607.0405,79.716 605.4305,77.186 601.6585,77.186 Z M636.323334,73.874 L626.893334,83.212 L636.507334,96 L631.079334,96 L623.857334,86.248 L620.775334,89.33 L620.775334,96 L616.497334,96 L616.497334,62.696 L620.775334,62.696 L620.775334,83.672 L630.343334,73.874 L636.323334,73.874 Z" id="Black" fill="#FFFFFF"></path>
        <path d="M1030.058,96 L1010.14,96 L1010.14,63.386 L1014.648,63.386 L1014.648,91.768 L1030.058,91.768 L1030.058,96 Z M1038.91683,96 L1034.63883,96 L1034.63883,73.874 L1038.91683,73.874 L1038.91683,96 Z M1033.67283,65.502 C1033.67283,63.754 1035.05283,62.374 1036.75483,62.374 C1038.50283,62.374 1039.88283,63.754 1039.88283,65.502 C1039.88283,67.204 1038.50283,68.584 1036.75483,68.584 C1035.05283,68.584 1033.67283,67.204 1033.67283,65.502 Z M1044.41767,97.196 L1048.60367,96.23 C1048.92567,99.312 1051.27167,101.658 1054.62967,101.658 C1059.27567,101.658 1061.39167,99.266 1061.39167,94.482 L1061.39167,91.308 C1060.33367,93.332 1057.94167,94.942 1054.62967,94.942 C1048.74167,94.942 1044.46367,90.48 1044.46367,84.224 C1044.46367,78.244 1048.55767,73.46 1054.62967,73.46 C1058.03367,73.46 1060.33367,74.748 1061.43767,76.956 L1061.43767,73.874 L1065.71567,73.874 L1065.71567,94.344 C1065.71567,99.956 1062.95567,105.43 1054.62967,105.43 C1049.10967,105.43 1044.96967,101.934 1044.41767,97.196 Z M1055.27367,91.308 C1058.99967,91.308 1061.57567,88.502 1061.57567,84.224 C1061.57567,79.946 1058.99967,77.14 1055.27367,77.14 C1051.45567,77.14 1048.87967,79.946 1048.87967,84.224 C1048.87967,88.548 1051.36367,91.308 1055.27367,91.308 Z M1076.6905,82.982 L1076.6905,96 L1072.3665,96 L1072.3665,62.696 L1076.6905,62.696 L1076.6905,76.45 C1078.3005,74.104 1080.8765,73.23 1083.4065,73.23 C1088.6965,73.23 1091.3185,77.048 1091.3185,81.97 L1091.3185,96 L1086.9945,96 L1086.9945,82.706 C1086.9945,79.624 1085.7065,77.14 1081.8425,77.14 C1078.5305,77.14 1076.7825,79.716 1076.6905,82.982 Z M1103.76533,66.882 L1103.76533,73.874 L1108.54933,73.874 L1108.54933,77.784 L1103.76533,77.784 L1103.76533,89.284 C1103.76533,91.308 1104.59333,92.32 1106.84733,92.32 C1107.39933,92.32 1108.18133,92.228 1108.54933,92.136 L1108.54933,95.816 C1108.18133,95.954 1107.07733,96.23 1105.60533,96.23 C1101.83333,96.23 1099.44133,93.93 1099.44133,89.928 L1099.44133,77.784 L1095.20933,77.784 L1095.20933,73.874 L1096.40533,73.874 C1098.79733,73.874 1099.80933,72.402 1099.80933,70.47 L1099.80933,66.882 L1103.76533,66.882 Z M1154.005,96 L1150.371,96 L1149.957,91.4 C1148.531,93.976 1144.989,96.69 1139.515,96.69 C1131.327,96.69 1123.691,90.71 1123.691,79.67 C1123.691,68.63 1131.787,62.696 1139.837,62.696 C1146.921,62.696 1152.395,66.652 1154.281,72.54 L1150.187,74.288 C1148.715,69.596 1144.897,66.836 1139.837,66.836 C1133.995,66.836 1128.291,71.022 1128.291,79.67 C1128.291,88.318 1133.811,92.596 1139.653,92.596 C1146.921,92.596 1149.543,87.444 1149.727,84.086 L1138.411,84.086 L1138.411,80.038 L1154.005,80.038 L1154.005,96 Z M1172.52383,73.644 L1172.52383,78.244 C1171.87983,78.152 1171.23583,78.106 1170.63783,78.106 C1167.00383,78.106 1164.56583,80.038 1164.56583,84.914 L1164.56583,96 L1160.24183,96 L1160.24183,73.874 L1164.47383,73.874 L1164.47383,77.738 C1166.08383,74.334 1168.84383,73.506 1171.09783,73.506 C1171.69583,73.506 1172.29383,73.598 1172.52383,73.644 Z M1175.49467,90.066 C1175.49467,86.11 1178.39267,83.902 1182.21067,83.35 L1188.19067,82.476 C1189.52467,82.292 1189.89267,81.602 1189.89267,80.82 C1189.89267,78.658 1188.46667,76.864 1185.10867,76.864 C1182.07267,76.864 1180.37067,78.75 1180.09467,81.326 L1175.95467,80.36 C1176.41467,76.128 1180.23267,73.184 1185.01667,73.184 C1191.64067,73.184 1194.21667,76.956 1194.21667,81.28 L1194.21667,92.366 C1194.21667,94.298 1194.40067,95.448 1194.49267,96 L1190.26067,96 C1190.16867,95.448 1190.03067,94.62 1190.03067,93.01 C1189.06467,94.574 1186.85667,96.69 1182.90067,96.69 C1178.39267,96.69 1175.49467,93.562 1175.49467,90.066 Z M1183.49867,93.056 C1187.04067,93.056 1189.89267,91.354 1189.89267,86.524 L1189.89267,85.512 L1183.13067,86.524 C1181.29067,86.8 1179.91067,87.858 1179.91067,89.836 C1179.91067,91.492 1181.29067,93.056 1183.49867,93.056 Z M1205.7435,105.246 L1201.0055,105.246 L1206.5255,93.562 L1197.0035,73.874 L1201.9715,73.874 L1208.8715,89.146 L1215.4955,73.874 L1220.1415,73.874 L1205.7435,105.246 Z" id="Light-Gray" fill="#121212"></path>
        <path d="M1519.81,89.192 L1526.848,63.386 L1531.494,63.386 L1522.202,96 L1517.556,96 L1509.046,69.55 L1500.628,96 L1496.12,96 L1486.69,63.386 L1491.336,63.386 L1498.512,88.916 L1506.7,63.386 L1511.438,63.386 L1519.81,89.192 Z M1539.93883,82.982 L1539.93883,96 L1535.61483,96 L1535.61483,62.696 L1539.93883,62.696 L1539.93883,76.45 C1541.54883,74.104 1544.12483,73.23 1546.65483,73.23 C1551.94483,73.23 1554.56683,77.048 1554.56683,81.97 L1554.56683,96 L1550.24283,96 L1550.24283,82.706 C1550.24283,79.624 1548.95483,77.14 1545.09083,77.14 C1541.77883,77.14 1540.03083,79.716 1539.93883,82.982 Z M1565.49567,96 L1561.21767,96 L1561.21767,73.874 L1565.49567,73.874 L1565.49567,96 Z M1560.25167,65.502 C1560.25167,63.754 1561.63167,62.374 1563.33367,62.374 C1565.08167,62.374 1566.46167,63.754 1566.46167,65.502 C1566.46167,67.204 1565.08167,68.584 1563.33367,68.584 C1561.63167,68.584 1560.25167,67.204 1560.25167,65.502 Z M1578.4025,66.882 L1578.4025,73.874 L1583.1865,73.874 L1583.1865,77.784 L1578.4025,77.784 L1578.4025,89.284 C1578.4025,91.308 1579.2305,92.32 1581.4845,92.32 C1582.0365,92.32 1582.8185,92.228 1583.1865,92.136 L1583.1865,95.816 C1582.8185,95.954 1581.7145,96.23 1580.2425,96.23 C1576.4705,96.23 1574.0785,93.93 1574.0785,89.928 L1574.0785,77.784 L1569.8465,77.784 L1569.8465,73.874 L1571.0425,73.874 C1573.4345,73.874 1574.4465,72.402 1574.4465,70.47 L1574.4465,66.882 L1578.4025,66.882 Z M1591.26333,82.66 L1603.36133,82.66 C1603.26933,79.486 1601.19933,77.002 1597.28933,77.002 C1593.65533,77.002 1591.44733,79.808 1591.26333,82.66 Z M1604.00533,88.41 L1607.73133,89.698 C1606.48933,93.608 1602.94733,96.69 1597.79533,96.69 C1591.86133,96.69 1586.66333,92.366 1586.66333,84.868 C1586.66333,77.922 1591.67733,73.184 1597.24333,73.184 C1604.05133,73.184 1607.86933,77.876 1607.86933,84.776 C1607.86933,85.328 1607.82333,85.88 1607.77733,86.156 L1591.12533,86.156 C1591.21733,90.112 1594.06933,92.872 1597.79533,92.872 C1601.38333,92.872 1603.17733,90.894 1604.00533,88.41 Z" id="White" fill="#121212"></path>
        <path d="M49.564,999.42 L49.564,996.684 L54.748,996.684 L56.044,990.672 L59.068,990.672 L57.772,996.684 L62.884,996.684 L64.18,990.672 L67.204,990.672 L65.908,996.684 L70.768,996.684 L70.768,999.42 L65.332,999.42 L64.108,1005.18 L69.004,1005.18 L69.004,1007.916 L63.496,1007.916 L62.2,1014 L59.176,1014 L60.472,1007.916 L55.36,1007.916 L54.064,1014 L51.04,1014 L52.336,1007.916 L47.8,1007.916 L47.8,1005.18 L52.948,1005.18 L54.172,999.42 L49.564,999.42 Z M57.196,999.42 L55.972,1005.18 L61.084,1005.18 L62.308,999.42 L57.196,999.42 Z M93.2890001,1014 L90.5170001,1006.872 L79.2130001,1006.872 L76.5130001,1014 L72.7330001,1014 L82.8850001,988.476 L86.9530001,988.476 L97.1050001,1014 L93.2890001,1014 Z M84.8290001,992.148 L80.4730001,1003.596 L89.2570001,1003.596 L84.8290001,992.148 Z M104.038,1014 L100.51,1014 L100.51,988.476 L116.026,988.476 L116.026,991.752 L104.038,991.752 L104.038,999.96 L114.91,999.96 L114.91,1003.272 L104.038,1003.272 L104.038,1014 Z M122.203,1002.336 C122.203,1005.9 122.851,1008.42 124.255,1009.896 C125.155,1010.832 126.307,1011.408 127.963,1011.408 C129.619,1011.408 130.771,1010.832 131.671,1009.896 C133.075,1008.42 133.723,1005.9 133.723,1002.336 C133.723,998.772 133.075,996.252 131.671,994.776 C130.771,993.84 129.619,993.264 127.963,993.264 C126.307,993.264 125.155,993.84 124.255,994.776 C122.851,996.252 122.203,998.772 122.203,1002.336 Z M118.711,1002.336 C118.711,999.132 119.251,996.18 120.799,993.876 C122.311,991.608 124.651,990.132 127.963,990.132 C131.275,990.132 133.615,991.608 135.127,993.876 C136.675,996.18 137.215,999.132 137.215,1002.336 C137.215,1005.54 136.675,1008.492 135.127,1010.796 C133.615,1013.064 131.275,1014.54 127.963,1014.54 C124.651,1014.54 122.311,1013.064 120.799,1010.796 C119.251,1008.492 118.711,1005.54 118.711,1002.336 Z M139.9,1007.664 L143.284,1006.656 C143.5,1009.536 145.624,1011.48 148.54,1011.48 C151.312,1011.48 153.544,1009.644 153.544,1006.764 C153.544,1003.56 151.204,1001.94 148.504,1001.94 C146.848,1001.94 145.264,1002.588 144.256,1003.632 C143.032,1003.164 141.988,1002.696 140.8,1002.264 L143.824,990.672 L156.136,990.672 L156.136,993.912 L146.164,993.912 L144.436,1000.608 C145.48,999.456 147.352,998.88 149.188,998.88 C153.76,998.88 157.108,1001.796 157.108,1006.62 C157.108,1011.012 153.724,1014.576 148.54,1014.576 C143.572,1014.576 140.224,1011.336 139.9,1007.664 Z M159.433,1007.664 L162.817,1006.656 C163.033,1009.536 165.157,1011.48 168.073,1011.48 C170.845,1011.48 173.077,1009.644 173.077,1006.764 C173.077,1003.56 170.737,1001.94 168.037,1001.94 C166.381,1001.94 164.797,1002.588 163.789,1003.632 C162.565,1003.164 161.521,1002.696 160.333,1002.264 L163.357,990.672 L175.669,990.672 L175.669,993.912 L165.697,993.912 L163.969,1000.608 C165.013,999.456 166.885,998.88 168.721,998.88 C173.293,998.88 176.641,1001.796 176.641,1006.62 C176.641,1011.012 173.257,1014.576 168.073,1014.576 C163.105,1014.576 159.757,1011.336 159.433,1007.664 Z M196.606,991.428 L195.526,994.308 C194.662,993.804 193.114,993.3 191.35,993.3 C186.49,993.3 183.43,996.864 183.142,1001.652 C184.078,1000.104 186.202,998.628 189.298,998.628 C193.906,998.628 197.29,1001.508 197.29,1006.584 C197.29,1011.588 193.222,1014.54 188.65,1014.54 C184.186,1014.54 179.542,1011.444 179.542,1003.74 C179.542,995.064 184.762,990.132 191.566,990.132 C193.69,990.132 195.526,990.672 196.606,991.428 Z M183.646,1006.584 C183.646,1009.644 186.13,1011.48 188.686,1011.48 C191.422,1011.48 193.726,1009.68 193.726,1006.584 C193.726,1003.452 191.386,1001.652 188.686,1001.652 C185.986,1001.652 183.646,1003.452 183.646,1006.584 Z" id="#AF0556" fill="#FFFFFF"></path>
        <path d="M529.564,999.42 L529.564,996.684 L534.748,996.684 L536.044,990.672 L539.068,990.672 L537.772,996.684 L542.884,996.684 L544.18,990.672 L547.204,990.672 L545.908,996.684 L550.768,996.684 L550.768,999.42 L545.332,999.42 L544.108,1005.18 L549.004,1005.18 L549.004,1007.916 L543.496,1007.916 L542.2,1014 L539.176,1014 L540.472,1007.916 L535.36,1007.916 L534.064,1014 L531.04,1014 L532.336,1007.916 L527.8,1007.916 L527.8,1005.18 L532.948,1005.18 L534.172,999.42 L529.564,999.42 Z M537.196,999.42 L535.972,1005.18 L541.084,1005.18 L542.308,999.42 L537.196,999.42 Z M562.021,1014 L558.565,1014 L558.565,997.548 L552.913,997.548 L552.913,995.064 C556.153,994.992 558.385,993.192 558.925,990.672 L562.021,990.672 L562.021,1014 Z M569.782,999.06 L566.254,998.628 C566.218,998.304 566.218,997.98 566.218,997.692 C566.218,993.696 569.17,990.132 574.282,990.132 C579.286,990.132 582.166,993.408 582.166,997.296 C582.166,1000.356 580.438,1002.804 577.774,1004.496 L573.166,1007.448 C571.834,1008.312 570.646,1009.284 570.322,1010.724 L582.31,1010.724 L582.31,1014 L565.966,1014 C566.038,1010.184 567.55,1007.268 571.51,1004.712 L575.398,1002.192 C577.594,1000.788 578.602,999.132 578.602,997.332 C578.602,995.208 577.162,993.228 574.21,993.228 C571.15,993.228 569.71,995.352 569.71,998.016 C569.71,998.34 569.746,998.7 569.782,999.06 Z M593.923,1014 L590.467,1014 L590.467,997.548 L584.815,997.548 L584.815,995.064 C588.055,994.992 590.287,993.192 590.827,990.672 L593.923,990.672 L593.923,1014 Z M601.684,999.06 L598.156,998.628 C598.12,998.304 598.12,997.98 598.12,997.692 C598.12,993.696 601.072,990.132 606.184,990.132 C611.188,990.132 614.068,993.408 614.068,997.296 C614.068,1000.356 612.34,1002.804 609.676,1004.496 L605.068,1007.448 C603.736,1008.312 602.548,1009.284 602.224,1010.724 L614.212,1010.724 L614.212,1014 L597.868,1014 C597.94,1010.184 599.452,1007.268 603.412,1004.712 L607.3,1002.192 C609.496,1000.788 610.504,999.132 610.504,997.332 C610.504,995.208 609.064,993.228 606.112,993.228 C603.052,993.228 601.612,995.352 601.612,998.016 C601.612,998.34 601.648,998.7 601.684,999.06 Z M625.825,1014 L622.369,1014 L622.369,997.548 L616.717,997.548 L616.717,995.064 C619.957,994.992 622.189,993.192 622.729,990.672 L625.825,990.672 L625.825,1014 Z M633.586,999.06 L630.058,998.628 C630.022,998.304 630.022,997.98 630.022,997.692 C630.022,993.696 632.974,990.132 638.086,990.132 C643.09,990.132 645.97,993.408 645.97,997.296 C645.97,1000.356 644.242,1002.804 641.578,1004.496 L636.97,1007.448 C635.638,1008.312 634.45,1009.284 634.126,1010.724 L646.114,1010.724 L646.114,1014 L629.77,1014 C629.842,1010.184 631.354,1007.268 635.314,1004.712 L639.202,1002.192 C641.398,1000.788 642.406,999.132 642.406,997.332 C642.406,995.208 640.966,993.228 638.014,993.228 C634.954,993.228 633.514,995.352 633.514,998.016 C633.514,998.34 633.55,998.7 633.586,999.06 Z" id="#121212" fill="#FFFFFF"></path>
        <path d="M1009.564,999.42 L1009.564,996.684 L1014.748,996.684 L1016.044,990.672 L1019.068,990.672 L1017.772,996.684 L1022.884,996.684 L1024.18,990.672 L1027.204,990.672 L1025.908,996.684 L1030.768,996.684 L1030.768,999.42 L1025.332,999.42 L1024.108,1005.18 L1029.004,1005.18 L1029.004,1007.916 L1023.496,1007.916 L1022.2,1014 L1019.176,1014 L1020.472,1007.916 L1015.36,1007.916 L1014.064,1014 L1011.04,1014 L1012.336,1007.916 L1007.8,1007.916 L1007.8,1005.18 L1012.948,1005.18 L1014.172,999.42 L1009.564,999.42 Z M1017.196,999.42 L1015.972,1005.18 L1021.084,1005.18 L1022.308,999.42 L1017.196,999.42 Z M1039.141,1014 L1035.613,1014 L1035.613,988.476 L1051.129,988.476 L1051.129,991.752 L1039.141,991.752 L1039.141,999.96 L1050.013,999.96 L1050.013,1003.272 L1039.141,1003.272 L1039.141,1014 Z M1062.022,1014 L1058.566,1014 L1058.566,997.548 L1052.914,997.548 L1052.914,995.064 C1056.154,994.992 1058.386,993.192 1058.926,990.672 L1062.022,990.672 L1062.022,1014 Z M1083.283,1014 L1067.767,1014 L1067.767,988.476 L1083.283,988.476 L1083.283,991.752 L1071.295,991.752 L1071.295,999.6 L1082.167,999.6 L1082.167,1002.912 L1071.295,1002.912 L1071.295,1010.724 L1083.283,1010.724 L1083.283,1014 Z M1092.016,1010.868 L1097.236,1010.868 C1101.952,1010.868 1105.912,1007.7 1105.912,1001.292 C1105.912,994.848 1102.024,991.608 1097.308,991.608 L1092.016,991.608 L1092.016,1010.868 Z M1097.344,1014 L1088.488,1014 L1088.488,988.476 L1097.416,988.476 C1103.896,988.476 1109.548,992.904 1109.548,1001.292 C1109.548,1009.644 1103.824,1014 1097.344,1014 Z M1129.729,1014 L1114.213,1014 L1114.213,988.476 L1129.729,988.476 L1129.729,991.752 L1117.741,991.752 L1117.741,999.6 L1128.613,999.6 L1128.613,1002.912 L1117.741,1002.912 L1117.741,1010.724 L1129.729,1010.724 L1129.729,1014 Z M1138.462,1014 L1134.934,1014 L1134.934,988.476 L1150.45,988.476 L1150.45,991.752 L1138.462,991.752 L1138.462,999.96 L1149.334,999.96 L1149.334,1003.272 L1138.462,1003.272 L1138.462,1014 Z" id="#F1EDEF" fill="#121212"></path>
        <path d="M1489.564,999.42 L1489.564,996.684 L1494.748,996.684 L1496.044,990.672 L1499.068,990.672 L1497.772,996.684 L1502.884,996.684 L1504.18,990.672 L1507.204,990.672 L1505.908,996.684 L1510.768,996.684 L1510.768,999.42 L1505.332,999.42 L1504.108,1005.18 L1509.004,1005.18 L1509.004,1007.916 L1503.496,1007.916 L1502.2,1014 L1499.176,1014 L1500.472,1007.916 L1495.36,1007.916 L1494.064,1014 L1491.04,1014 L1492.336,1007.916 L1487.8,1007.916 L1487.8,1005.18 L1492.948,1005.18 L1494.172,999.42 L1489.564,999.42 Z M1497.196,999.42 L1495.972,1005.18 L1501.084,1005.18 L1502.308,999.42 L1497.196,999.42 Z M1519.141,1014 L1515.613,1014 L1515.613,988.476 L1531.129,988.476 L1531.129,991.752 L1519.141,991.752 L1519.141,999.96 L1530.013,999.96 L1530.013,1003.272 L1519.141,1003.272 L1519.141,1014 Z M1538.782,1014 L1535.254,1014 L1535.254,988.476 L1550.77,988.476 L1550.77,991.752 L1538.782,991.752 L1538.782,999.96 L1549.654,999.96 L1549.654,1003.272 L1538.782,1003.272 L1538.782,1014 Z M1558.423,1014 L1554.895,1014 L1554.895,988.476 L1570.411,988.476 L1570.411,991.752 L1558.423,991.752 L1558.423,999.96 L1569.295,999.96 L1569.295,1003.272 L1558.423,1003.272 L1558.423,1014 Z M1578.064,1014 L1574.536,1014 L1574.536,988.476 L1590.052,988.476 L1590.052,991.752 L1578.064,991.752 L1578.064,999.96 L1588.936,999.96 L1588.936,1003.272 L1578.064,1003.272 L1578.064,1014 Z M1597.705,1014 L1594.177,1014 L1594.177,988.476 L1609.693,988.476 L1609.693,991.752 L1597.705,991.752 L1597.705,999.96 L1608.577,999.96 L1608.577,1003.272 L1597.705,1003.272 L1597.705,1014 Z M1617.346,1014 L1613.818,1014 L1613.818,988.476 L1629.334,988.476 L1629.334,991.752 L1617.346,991.752 L1617.346,999.96 L1628.218,999.96 L1628.218,1003.272 L1617.346,1003.272 L1617.346,1014 Z" id="#FFFFFF" fill="#121212"></path>
    </g>
</svg>