<?xml version="1.0" encoding="UTF-8"?>
<svg width="1920px" height="1080px" viewBox="0 0 1920 1080" version="1.1" xmlns="http://www.w3.org/2000/svg" xmlns:xlink="http://www.w3.org/1999/xlink" style="background: #F1EDEF;">
    <!-- Generator: Sketch 49 (51002) - http://www.bohemiancoding.com/sketch -->
    <title>Artboard Copy 26</title>
    <desc>Created with Sketch.</desc>
    <defs>
        <polygon id="path-1" points="0.00159354839 0.307306306 243.475868 0.307306306 243.475868 442.998803 0.00159354839 442.998803"></polygon>
    </defs>
    <g id="Artboard-Copy-26" stroke="none" stroke-width="1" fill="none" fill-rule="evenodd">
        <path d="M656.641499,819.874 L661.103499,819.874 L666.853499,836.526 L671.729499,819.874 L676.283499,819.874 L669.107499,842 L664.645499,842 L658.757499,825.164 L653.007499,842 L648.453499,842 L641.185499,819.874 L645.923499,819.874 L650.891499,836.526 L656.641499,819.874 Z M692.870332,819.874 L697.332332,819.874 L703.082332,836.526 L707.958332,819.874 L712.512332,819.874 L705.336332,842 L700.874332,842 L694.986332,825.164 L689.236332,842 L684.682332,842 L677.414332,819.874 L682.152332,819.874 L687.120332,836.526 L692.870332,819.874 Z M729.099166,819.874 L733.561166,819.874 L739.311166,836.526 L744.187166,819.874 L748.741166,819.874 L741.565166,842 L737.103166,842 L731.215166,825.164 L725.465166,842 L720.911166,842 L713.643166,819.874 L718.381166,819.874 L723.349166,836.526 L729.099166,819.874 Z M750.561999,839.056 C750.561999,837.262 751.941999,835.836 753.735999,835.836 C755.529999,835.836 756.955999,837.262 756.955999,839.056 C756.955999,840.85 755.529999,842.23 753.735999,842.23 C751.941999,842.23 750.561999,840.85 750.561999,839.056 Z M767.930833,829.212 L767.930833,842 L763.606833,842 L763.606833,819.874 L767.838833,819.874 L767.838833,823.048 C769.448833,820.288 772.070833,819.23 774.646833,819.23 C779.936833,819.23 782.558833,823.048 782.558833,827.97 L782.558833,842 L778.234833,842 L778.234833,828.706 C778.234833,825.624 776.946833,823.14 773.082833,823.14 C769.678833,823.14 767.930833,825.854 767.930833,829.212 Z M798.685666,838.826 C802.365666,838.826 805.585666,836.066 805.585666,830.914 C805.585666,825.808 802.365666,823.048 798.685666,823.048 C795.005666,823.048 791.785666,825.808 791.785666,830.914 C791.785666,836.066 795.005666,838.826 798.685666,838.826 Z M798.685666,819.184 C805.309666,819.184 810.001666,824.198 810.001666,830.914 C810.001666,837.676 805.309666,842.69 798.685666,842.69 C792.061666,842.69 787.369666,837.676 787.369666,830.914 C787.369666,824.198 792.061666,819.184 798.685666,819.184 Z M827.554499,819.644 L827.554499,824.244 C826.910499,824.152 826.266499,824.106 825.668499,824.106 C822.034499,824.106 819.596499,826.038 819.596499,830.914 L819.596499,842 L815.272499,842 L815.272499,819.874 L819.504499,819.874 L819.504499,823.738 C821.114499,820.334 823.874499,819.506 826.128499,819.506 C826.726499,819.506 827.324499,819.598 827.554499,819.644 Z M838.851333,812.882 L838.851333,819.874 L843.635333,819.874 L843.635333,823.784 L838.851333,823.784 L838.851333,835.284 C838.851333,837.308 839.679333,838.32 841.933333,838.32 C842.485333,838.32 843.267333,838.228 843.635333,838.136 L843.635333,841.816 C843.267333,841.954 842.163333,842.23 840.691333,842.23 C836.919333,842.23 834.527333,839.93 834.527333,835.928 L834.527333,823.784 L830.295333,823.784 L830.295333,819.874 L831.491333,819.874 C833.883333,819.874 834.895333,818.402 834.895333,816.47 L834.895333,812.882 L838.851333,812.882 Z M853.460166,828.982 L853.460166,842 L849.136166,842 L849.136166,808.696 L853.460166,808.696 L853.460166,822.45 C855.070166,820.104 857.646166,819.23 860.176166,819.23 C865.466166,819.23 868.088166,823.048 868.088166,827.97 L868.088166,842 L863.764166,842 L863.764166,828.706 C863.764166,825.624 862.476166,823.14 858.612166,823.14 C855.300166,823.14 853.552166,825.716 853.460166,828.982 Z M879.063,828.982 L879.063,842 L874.739,842 L874.739,808.696 L879.063,808.696 L879.063,822.45 C880.673,820.104 883.249,819.23 885.779,819.23 C891.069,819.23 893.691,823.048 893.691,827.97 L893.691,842 L889.367,842 L889.367,828.706 C889.367,825.624 888.079,823.14 884.215,823.14 C880.903,823.14 879.155,825.716 879.063,828.982 Z M904.619833,842 L900.341833,842 L900.341833,819.874 L904.619833,819.874 L904.619833,842 Z M899.375833,811.502 C899.375833,809.754 900.755833,808.374 902.457833,808.374 C904.205833,808.374 905.585833,809.754 905.585833,811.502 C905.585833,813.204 904.205833,814.584 902.457833,814.584 C900.755833,814.584 899.375833,813.204 899.375833,811.502 Z M916.054666,842 L911.730666,842 L911.730666,808.696 L916.054666,808.696 L916.054666,842 Z M927.4895,842 L923.1655,842 L923.1655,808.696 L927.4895,808.696 L927.4895,842 Z M932.530333,836.25 L936.440333,834.87 C936.716333,837.17 938.464333,839.01 941.592333,839.01 C944.030333,839.01 945.364333,837.63 945.364333,836.066 C945.364333,834.686 944.352333,833.628 942.512333,833.214 L938.740333,832.386 C935.290333,831.65 933.220333,829.304 933.220333,826.176 C933.220333,822.404 936.762333,819.184 941.086333,819.184 C947.158333,819.184 949.044333,823.14 949.504333,825.118 L945.686333,826.544 C945.502333,825.394 944.582333,822.864 941.086333,822.864 C938.878333,822.864 937.406333,824.29 937.406333,825.808 C937.406333,827.142 938.234333,828.108 939.936333,828.476 L943.524333,829.258 C947.526333,830.132 949.642333,832.57 949.642333,835.836 C949.642333,838.964 947.020333,842.69 941.546333,842.69 C935.474333,842.69 932.898333,838.78 932.530333,836.25 Z M964.205167,823.186 C960.709167,823.186 957.489167,825.762 957.489167,830.914 C957.489167,835.974 960.663167,838.688 964.251167,838.688 C968.391167,838.688 969.909167,835.882 970.415167,834.134 L974.233167,835.79 C973.175167,838.964 970.001167,842.69 964.251167,842.69 C957.811167,842.69 953.073167,837.63 953.073167,830.914 C953.073167,824.014 957.903167,819.184 964.205167,819.184 C970.093167,819.184 973.129167,822.864 974.049167,826.222 L970.139167,827.878 C969.587167,825.716 967.977167,823.186 964.205167,823.186 Z M983.368,828.982 L983.368,842 L979.044,842 L979.044,808.696 L983.368,808.696 L983.368,822.45 C984.978,820.104 987.554,819.23 990.084,819.23 C995.374,819.23 997.996,823.048 997.996,827.97 L997.996,842 L993.672,842 L993.672,828.706 C993.672,825.624 992.384,823.14 988.52,823.14 C985.208,823.14 983.46,825.716 983.368,828.982 Z M1016.92883,819.644 L1016.92883,824.244 C1016.28483,824.152 1015.64083,824.106 1015.04283,824.106 C1011.40883,824.106 1008.97083,826.038 1008.97083,830.914 L1008.97083,842 L1004.64683,842 L1004.64683,819.874 L1008.87883,819.874 L1008.87883,823.738 C1010.48883,820.334 1013.24883,819.506 1015.50283,819.506 C1016.10083,819.506 1016.69883,819.598 1016.92883,819.644 Z M1025.55767,842 L1021.27967,842 L1021.27967,819.874 L1025.55767,819.874 L1025.55767,842 Z M1020.31367,811.502 C1020.31367,809.754 1021.69367,808.374 1023.39567,808.374 C1025.14367,808.374 1026.52367,809.754 1026.52367,811.502 C1026.52367,813.204 1025.14367,814.584 1023.39567,814.584 C1021.69367,814.584 1020.31367,813.204 1020.31367,811.502 Z M1030.5985,836.25 L1034.5085,834.87 C1034.7845,837.17 1036.5325,839.01 1039.6605,839.01 C1042.0985,839.01 1043.4325,837.63 1043.4325,836.066 C1043.4325,834.686 1042.4205,833.628 1040.5805,833.214 L1036.8085,832.386 C1033.3585,831.65 1031.2885,829.304 1031.2885,826.176 C1031.2885,822.404 1034.8305,819.184 1039.1545,819.184 C1045.2265,819.184 1047.1125,823.14 1047.5725,825.118 L1043.7545,826.544 C1043.5705,825.394 1042.6505,822.864 1039.1545,822.864 C1036.9465,822.864 1035.4745,824.29 1035.4745,825.808 C1035.4745,827.142 1036.3025,828.108 1038.0045,828.476 L1041.5925,829.258 C1045.5945,830.132 1047.7105,832.57 1047.7105,835.836 C1047.7105,838.964 1045.0885,842.69 1039.6145,842.69 C1033.5425,842.69 1030.9665,838.78 1030.5985,836.25 Z M1059.00733,812.882 L1059.00733,819.874 L1063.79133,819.874 L1063.79133,823.784 L1059.00733,823.784 L1059.00733,835.284 C1059.00733,837.308 1059.83533,838.32 1062.08933,838.32 C1062.64133,838.32 1063.42333,838.228 1063.79133,838.136 L1063.79133,841.816 C1063.42333,841.954 1062.31933,842.23 1060.84733,842.23 C1057.07533,842.23 1054.68333,839.93 1054.68333,835.928 L1054.68333,823.784 L1050.45133,823.784 L1050.45133,819.874 L1051.64733,819.874 C1054.03933,819.874 1055.05133,818.402 1055.05133,816.47 L1055.05133,812.882 L1059.00733,812.882 Z M1073.57017,842 L1069.29217,842 L1069.29217,819.874 L1073.57017,819.874 L1073.57017,842 Z M1068.32617,811.502 C1068.32617,809.754 1069.70617,808.374 1071.40817,808.374 C1073.15617,808.374 1074.53617,809.754 1074.53617,811.502 C1074.53617,813.204 1073.15617,814.584 1071.40817,814.584 C1069.70617,814.584 1068.32617,813.204 1068.32617,811.502 Z M1079.301,836.066 C1079.301,832.11 1082.199,829.902 1086.017,829.35 L1091.997,828.476 C1093.331,828.292 1093.699,827.602 1093.699,826.82 C1093.699,824.658 1092.273,822.864 1088.915,822.864 C1085.879,822.864 1084.177,824.75 1083.901,827.326 L1079.761,826.36 C1080.221,822.128 1084.039,819.184 1088.823,819.184 C1095.447,819.184 1098.023,822.956 1098.023,827.28 L1098.023,838.366 C1098.023,840.298 1098.207,841.448 1098.299,842 L1094.067,842 C1093.975,841.448 1093.837,840.62 1093.837,839.01 C1092.871,840.574 1090.663,842.69 1086.707,842.69 C1082.199,842.69 1079.301,839.562 1079.301,836.066 Z M1087.305,839.056 C1090.847,839.056 1093.699,837.354 1093.699,832.524 L1093.699,831.512 L1086.937,832.524 C1085.097,832.8 1083.717,833.858 1083.717,835.836 C1083.717,837.492 1085.097,839.056 1087.305,839.056 Z M1108.81383,829.212 L1108.81383,842 L1104.48983,842 L1104.48983,819.874 L1108.72183,819.874 L1108.72183,823.048 C1110.33183,820.288 1112.95383,819.23 1115.52983,819.23 C1120.81983,819.23 1123.44183,823.048 1123.44183,827.97 L1123.44183,842 L1119.11783,842 L1119.11783,828.706 C1119.11783,825.624 1117.82983,823.14 1113.96583,823.14 C1110.56183,823.14 1108.81383,825.854 1108.81383,829.212 Z M1129.63267,839.056 C1129.63267,837.262 1131.01267,835.836 1132.80667,835.836 C1134.60067,835.836 1136.02667,837.262 1136.02667,839.056 C1136.02667,840.85 1134.60067,842.23 1132.80667,842.23 C1131.01267,842.23 1129.63267,840.85 1129.63267,839.056 Z M1151.2795,823.186 C1147.7835,823.186 1144.5635,825.762 1144.5635,830.914 C1144.5635,835.974 1147.7375,838.688 1151.3255,838.688 C1155.4655,838.688 1156.9835,835.882 1157.4895,834.134 L1161.3075,835.79 C1160.2495,838.964 1157.0755,842.69 1151.3255,842.69 C1144.8855,842.69 1140.1475,837.63 1140.1475,830.914 C1140.1475,824.014 1144.9775,819.184 1151.2795,819.184 C1157.1675,819.184 1160.2035,822.864 1161.1235,826.222 L1157.2135,827.878 C1156.6615,825.716 1155.0515,823.186 1151.2795,823.186 Z M1170.44233,828.982 L1170.44233,842 L1166.11833,842 L1166.11833,808.696 L1170.44233,808.696 L1170.44233,822.45 C1172.05233,820.104 1174.62833,819.23 1177.15833,819.23 C1182.44833,819.23 1185.07033,823.048 1185.07033,827.97 L1185.07033,842 L1180.74633,842 L1180.74633,828.706 C1180.74633,825.624 1179.45833,823.14 1175.59433,823.14 C1172.28233,823.14 1170.53433,825.716 1170.44233,828.982 Z M1205.84317,839.332 C1204.64717,841.632 1201.88717,842.69 1199.31117,842.69 C1194.15917,842.69 1191.03117,838.826 1191.03117,833.812 L1191.03117,819.874 L1195.35517,819.874 L1195.35517,833.168 C1195.35517,836.204 1196.73517,838.872 1200.36917,838.872 C1203.86517,838.872 1205.61317,836.572 1205.61317,833.214 L1205.61317,819.874 L1209.93717,819.874 L1209.93717,837.906 C1209.93717,839.654 1210.07517,841.218 1210.16717,842 L1206.02717,842 C1205.93517,841.494 1205.84317,840.252 1205.84317,839.332 Z M1229.33,819.644 L1229.33,824.244 C1228.686,824.152 1228.042,824.106 1227.444,824.106 C1223.81,824.106 1221.372,826.038 1221.372,830.914 L1221.372,842 L1217.048,842 L1217.048,819.874 L1221.28,819.874 L1221.28,823.738 C1222.89,820.334 1225.65,819.506 1227.904,819.506 C1228.502,819.506 1229.1,819.598 1229.33,819.644 Z M1242.74283,823.186 C1239.24683,823.186 1236.02683,825.762 1236.02683,830.914 C1236.02683,835.974 1239.20083,838.688 1242.78883,838.688 C1246.92883,838.688 1248.44683,835.882 1248.95283,834.134 L1252.77083,835.79 C1251.71283,838.964 1248.53883,842.69 1242.78883,842.69 C1236.34883,842.69 1231.61083,837.63 1231.61083,830.914 C1231.61083,824.014 1236.44083,819.184 1242.74283,819.184 C1248.63083,819.184 1251.66683,822.864 1252.58683,826.222 L1248.67683,827.878 C1248.12483,825.716 1246.51483,823.186 1242.74283,823.186 Z M1261.90567,828.982 L1261.90567,842 L1257.58167,842 L1257.58167,808.696 L1261.90567,808.696 L1261.90567,822.45 C1263.51567,820.104 1266.09167,819.23 1268.62167,819.23 C1273.91167,819.23 1276.53367,823.048 1276.53367,827.97 L1276.53367,842 L1272.20967,842 L1272.20967,828.706 C1272.20967,825.624 1270.92167,823.14 1267.05767,823.14 C1263.74567,823.14 1261.99767,825.716 1261.90567,828.982 Z" id="www.northhillschrist" fill="#AF0556"></path>
        <g id="Page-1" transform="translate(546.000000, 319.000000)">
            <path d="M808.79267,427.14175 L737.295459,427.14175 L737.295459,404.413378 C750.522523,401.970926 760.583556,390.381252 760.583556,376.464863 L760.583556,327.915143 C781.308484,316.576898 797.821353,299.930709 808.79267,280.091773 L808.79267,427.14175 Z M595.20733,279.880254 C606.402225,300.086356 623.162628,316.804381 643.416444,327.939089 L643.416444,361.762259 C643.416444,381.102329 654.036423,397.979991 669.734828,406.963585 L669.734828,427.14175 L595.20733,427.14175 L595.20733,279.880254 Z M595.20733,14.8542587 L666.704541,14.8542587 L666.704541,37.3950574 C653.477477,39.8335184 643.416444,51.4231926 643.416444,65.3395816 L643.416444,114.080866 C622.691516,125.419111 606.174654,142.061309 595.20733,161.904236 L595.20733,14.8542587 Z M738.413352,121.009129 C740.665107,121.82727 742.860967,122.745185 745.032872,123.707 L745.032872,149.971341 C745.032872,151.795198 743.547672,153.279826 741.723112,153.279826 C739.898552,153.279826 738.413352,151.795198 738.413352,149.971341 L738.413352,121.009129 Z M694.072944,176.084026 L694.072944,114.914971 C696.268805,114.755334 698.476642,114.655561 700.692465,114.627624 L700.692465,177.584618 L700.692465,191.924046 C700.692465,194.023277 699.207265,195.731397 697.382705,195.731397 C695.558144,195.731397 694.072944,194.023277 694.072944,191.924046 L694.072944,176.084026 Z M675.212501,180.893103 C673.647452,180.893103 671.902741,178.91759 671.902741,176.084026 L671.902741,134.829735 C674.64557,133.18547 676.913295,130.882701 678.522261,128.112992 L678.522261,176.084026 C678.522261,178.91759 676.777551,180.893103 675.212501,180.893103 Z M722.866661,149.971341 L722.866661,177.584618 C722.866661,179.408475 721.377469,180.893103 719.552908,180.893103 C717.724356,180.893103 716.239156,179.408475 716.239156,177.584618 L716.239156,115.569485 C718.470948,115.872796 720.682778,116.220007 722.866661,116.655019 L722.866661,149.971341 Z M671.866808,52.4448718 L695.7937,52.4448718 L695.7937,45.8478569 C699.826098,44.3552474 704.082075,43.4932055 708.46581,43.4932055 C728.6278,43.4932055 745.032872,59.8919558 745.032872,80.0421847 L745.032872,106.905166 C731.642117,101.84067 717.145447,99.0470154 701.998004,99.0470154 C694.979236,99.0470154 687.9964,99.6735921 681.133339,100.854909 L681.133339,95.3115006 C692.284316,91.4123575 700.245308,80.7525711 700.245308,68.4485197 L684.694625,68.4485197 C684.694625,75.1812264 679.444523,80.8283988 672.74116,81.307311 C669.567144,81.5308033 666.888194,83.6938899 665.922016,86.7230093 C665.60661,87.7047792 665.498814,88.7224675 665.586648,89.7162102 L665.586648,118.71035 C665.586648,120.534207 664.101448,122.018835 662.276888,122.018835 C660.452328,122.018835 658.967128,120.534207 658.967128,118.71035 L658.967128,65.3395816 C658.967128,58.2277361 664.756214,52.4448718 671.866808,52.4448718 Z M708.46581,27.9525061 C699.179318,27.9525061 690.196253,30.3789943 682.255224,35.0084785 L682.255224,14.8542587 L718.714489,14.8542587 L718.714489,28.9741853 C715.396744,28.3076993 711.975194,27.9525061 708.46581,27.9525061 Z M665.586648,320.990871 C663.338886,320.168739 661.143025,319.254815 658.967128,318.293 L658.967128,291.833103 C658.967128,290.009246 660.452328,288.524618 662.276888,288.524618 C664.101448,288.524618 665.586648,290.009246 665.586648,291.833103 L665.586648,320.990871 Z M709.927056,265.724409 L709.927056,327.081038 C707.727203,327.244666 705.519365,327.340448 703.303543,327.368385 L703.303543,264.223817 L703.303543,249.880398 C703.303543,247.781167 704.788743,246.073047 706.613303,246.073047 C708.441856,246.073047 709.927056,247.781167 709.927056,249.880398 L709.927056,265.724409 Z M728.787499,260.915333 C730.352548,260.915333 732.097259,262.890845 732.097259,265.724409 L732.097259,306.9787 C729.35443,308.622965 727.086705,310.925734 725.477739,313.691452 L725.477739,265.724409 C725.477739,262.890845 727.222449,260.915333 728.787499,260.915333 Z M681.133339,291.833103 L681.133339,264.223817 C681.133339,262.39996 682.618539,260.915333 684.443099,260.915333 C686.271652,260.915333 687.756852,262.39996 687.756852,264.223817 L687.756852,326.426524 C685.529052,326.127204 683.317222,325.779993 681.133339,325.34099 L681.133339,291.833103 Z M732.133192,389.359572 L708.2063,389.359572 L708.2063,395.960578 C704.173902,397.453188 699.913933,398.311239 695.530197,398.311239 C675.368207,398.311239 658.967128,381.916479 658.967128,361.762259 L658.967128,335.094834 C672.35389,340.155339 686.854553,342.948994 701.998004,342.948994 C709.012779,342.948994 716.0036,342.33439 722.866661,341.153073 L722.866661,346.496935 C711.715684,350.396078 703.754692,361.055864 703.754692,373.355925 L719.305375,373.355925 C719.305375,366.627209 724.555477,360.976045 731.262832,360.497133 C734.432856,360.26965 737.115798,358.106563 738.081977,355.077444 C738.39339,354.095674 738.501186,353.077986 738.413352,352.084243 L738.413352,323.098085 C738.413352,321.274228 739.898552,319.7896 741.723112,319.7896 C743.547672,319.7896 745.032872,321.274228 745.032872,323.098085 L745.032872,376.464863 C745.032872,383.572717 739.243786,389.359572 732.133192,389.359572 Z M695.530197,413.855929 C704.820682,413.855929 713.80774,411.42545 721.744776,406.791975 L721.744776,427.14175 L685.281518,427.14175 L685.281518,412.830259 C688.599264,413.496745 692.020813,413.855929 695.530197,413.855929 Z M756.978352,312.107051 C754.686673,308.934258 751.432807,306.55167 747.647942,305.290535 L747.647942,265.724409 C747.647942,254.49791 739.183899,245.370642 728.787499,245.370642 C727.501923,245.370642 726.244294,245.514316 725.034574,245.781709 C723.194044,237.07748 715.644277,230.528356 706.613303,230.528356 C697.598298,230.528356 690.064501,237.061516 688.211994,245.749781 C686.990297,245.502343 685.73666,245.370642 684.443099,245.370642 C674.046699,245.370642 665.586648,253.827433 665.586648,264.223817 L665.586648,273.315166 C664.504688,273.123602 663.41075,272.979928 662.276888,272.979928 C651.876495,272.979928 643.416444,281.436718 643.416444,291.833103 L643.416444,309.784327 C614.602765,290.719632 595.550683,258.049842 595.550683,220.998005 C595.550683,183.211836 615.117794,149.021499 647.12146,129.825103 C649.413139,132.93005 652.619095,135.268738 656.352058,136.517901 L656.352058,176.084026 C656.352058,187.306534 664.812108,196.433802 675.212501,196.433802 C676.498077,196.433802 677.755706,196.290128 678.965426,196.026727 C680.805956,204.726964 688.355723,211.272097 697.382705,211.272097 C706.397709,211.272097 713.931506,204.738937 715.788006,196.054663 C717.005711,196.302101 718.26334,196.433802 719.552908,196.433802 C729.953301,196.433802 738.413352,187.977011 738.413352,177.584618 L738.413352,168.485287 C739.495312,168.680843 740.58925,168.820525 741.723112,168.820525 C752.123505,168.820525 760.583556,160.363735 760.583556,149.971341 L760.583556,132.219664 C789.401227,151.276377 808.449317,183.946168 808.449317,220.998005 C808.449317,258.744264 788.92213,292.894692 756.978352,312.107051 Z M808.79267,162.119746 C797.593782,141.905662 780.837372,125.195619 760.583556,114.064902 L760.583556,80.0421847 C760.583556,60.7021156 749.959584,43.8244531 734.26118,34.8368683 L734.26118,14.8542587 L808.79267,14.8542587 L808.79267,162.119746 Z M824,220.998005 C824,218.07664 823.856271,215.191195 823.656647,212.317722 L823.656647,0 L580.343353,0 L580.343353,211.918628 C580.127759,214.923802 580,217.94893 580,220.998005 C580,223.915378 580.139737,226.804814 580.343353,229.674296 L580.343353,442 L823.656647,442 L823.656647,230.07339 C823.872241,227.068216 824,224.043088 824,220.998005 Z" id="Fill-1" fill="#AF0556"></path>
            <path d="M304.845082,245.590144 L331.468938,245.590144 L331.468938,310.518659 L331.468938,325.372918 L331.468938,343.791081 L491.53505,343.791081 L491.53505,325.372918 L491.53505,310.518659 L491.53505,245.590144 L518.158905,245.590144 L518.158905,364.731515 L304.845082,364.731515 L304.845082,245.590144 Z M372.555085,310.514668 L476.689968,310.514668 L476.689968,131.481341 L372.555085,131.481341 L372.555085,310.514668 Z M346.310032,310.514668 L357.710003,310.514668 L357.710003,131.481341 L346.310032,131.481341 L346.310032,310.514668 Z M346.310032,328.936822 L476.689968,328.936822 L476.689968,325.372918 L346.310032,325.372918 L346.310032,328.936822 Z M518.158905,77.2684852 L518.158905,230.731894 L491.53505,230.731894 L491.53505,116.627082 L331.468938,116.627082 L331.468938,230.731894 L304.845082,230.731894 L304.845082,77.2684852 L518.158905,77.2684852 Z M304.845082,65.2956813 L518.158905,65.2956813 L518.158905,45.3410082 L304.845082,45.3410082 L304.845082,65.2956813 Z M304.845082,33.3721953 L518.158905,33.3721953 L518.158905,14.8582496 L304.845082,14.8582496 L304.845082,33.3721953 Z M304.845082,396.658992 L518.158905,396.658992 L518.158905,376.704319 L304.845082,376.704319 L304.845082,396.658992 Z M304.845082,427.145741 L518.158905,427.145741 L518.158905,408.631796 L304.845082,408.631796 L304.845082,427.145741 Z M290,442 L533,442 L533,0 L290,0 L290,442 Z" id="Fill-3" fill="#AF0556"></path>
            <polygon id="Fill-5" fill="#AF0556" points="436.895889 177 422.104111 177 422.104111 196.41264 405 196.41264 405 211.188478 422.104111 211.188478 422.104111 265 436.895889 265 436.895889 211.188478 454 211.188478 454 196.41264 436.895889 196.41264"></polygon>
            <g id="Group-9">
                <mask id="mask-2" fill="white">
                    <use xlink:href="#path-1"></use>
                </mask>
                <g id="Clip-8"></g>
                <path d="M113.980142,15.8510189 L113.980142,39.4896586 L93.3158032,87.6369739 C92.9134323,88.5828387 92.6823677,89.6165054 92.6823677,90.7100369 L92.6823677,134.678785 L92.8178194,134.678785 L15.5147871,191.562379 L15.5147871,15.8510189 L113.980142,15.8510189 Z M227.95869,191.562379 L150.655658,134.678785 L150.79111,134.678785 L150.79111,90.7100369 C150.79111,89.6165054 150.564029,88.5828387 150.157674,87.6369739 L150.161658,87.6369739 L129.497319,39.4896586 L129.497319,15.8510189 L227.95869,15.8510189 L227.95869,191.562379 Z M168.535271,362.352848 L227.95869,362.352848 L227.95869,417.444487 L168.535271,362.352848 Z M97.7857065,362.352848 L145.687771,362.352848 L215.907481,427.457884 L27.5699806,427.457884 L97.7857065,362.352848 Z M15.5147871,362.352848 L74.9302387,362.352848 L15.5147871,417.440496 L15.5147871,362.352848 Z M156.488045,346.807938 L194.964271,346.807938 L194.964271,245.748064 L156.488045,245.748064 L156.488045,346.807938 Z M102.498626,346.807938 L140.970868,346.807938 L140.970868,245.748064 L102.498626,245.748064 L102.498626,346.807938 Z M48.5092065,346.807938 L86.9814484,346.807938 L86.9814484,245.748064 L48.5092065,245.748064 L48.5092065,346.807938 Z M15.5147871,346.807938 L32.9960129,346.807938 L32.9960129,245.748064 L15.5147871,245.748064 L15.5147871,346.807938 Z M210.477465,346.811929 L227.95869,346.811929 L227.95869,245.752055 L210.477465,245.752055 L210.477465,346.811929 Z M15.5147871,230.207145 L227.95869,230.207145 L227.95869,214.686181 L15.5147871,214.686181 L15.5147871,230.207145 Z M121.736739,132.691271 L212.04711,199.145262 L31.4263677,199.145262 L121.736739,132.691271 Z M108.199545,98.4804964 L135.277916,98.4804964 L135.277916,123.360334 L126.334126,116.783181 C123.593223,114.771722 119.880255,114.771722 117.143335,116.783181 L108.199545,123.360334 L108.199545,98.4804964 Z M121.736739,60.7696225 L131.254206,82.9395775 L112.223255,82.9395775 L121.736739,60.7696225 Z M243.475868,206.899758 L243.475868,0.306109009 L0.00159354839,0.306109009 L0.00159354839,206.899758 L0.00159354839,206.923704 L0.00159354839,442.998803 L243.475868,442.998803 L243.475868,206.923704 L243.475868,206.899758 Z" id="Fill-7" fill="#AF0556" mask="url(#mask-2)"></path>
            </g>
        </g>
    </g>
</svg>