<?xml version="1.0" encoding="UTF-8"?>
<svg width="1920px" height="1080px" viewBox="0 0 1920 1080" version="1.1" xmlns="http://www.w3.org/2000/svg" xmlns:xlink="http://www.w3.org/1999/xlink" style="background: #0D0D0D;">
    <!-- Generator: Sketch 48.2 (47327) - http://www.bohemiancoding.com/sketch -->
    <title>Artboard Copy 18</title>
    <desc>Created with Sketch.</desc>
    <defs>
        <polygon id="path-1" points="0 389.261149 1274.87021 389.261149 1274.87021 0.0122260015 0 0.0122260015"></polygon>
    </defs>
    <g id="Page-1" stroke="none" stroke-width="1" fill="none" fill-rule="evenodd">
        <g id="Artboard-Copy-18">
            <g id="Page-1" transform="translate(321.000000, 346.000000)">
                <polygon id="Fill-1" fill="#FFFFFF" points="348.999815 173 296.452898 93.9132517 296.452898 173 283 173 283 76 300.979107 76 349.547102 150.418536 349.547102 76 363 76 363 173"></polygon>
                <g id="Group-37">
                    <path d="M432.899245,140.387285 C432.899245,125.166952 423.307093,116.943539 412.348852,116.943539 C401.383227,116.943539 391.798458,125.166952 391.798458,140.387285 C391.798458,155.733222 401.383227,163.956635 412.348852,163.956635 C423.307093,163.956635 432.899245,155.733222 432.899245,140.387285 M446.050611,140.387285 C446.050611,160.535754 432.079593,175.475323 412.348852,175.475323 C392.625495,175.475323 378.647093,160.535754 378.647093,140.387285 C378.647093,120.371808 392.625495,105.432239 412.348852,105.432239 C432.079593,105.432239 446.050611,120.371808 446.050611,140.387285" id="Fill-2" fill="#FFFFFF"></path>
                    <path d="M496.69703,120.508496 C494.777123,120.235121 492.857215,120.094739 491.077609,120.094739 C480.259669,120.094739 473.000942,125.857778 473.000942,140.38359 L473.000942,173.417623 L460.122794,173.417623 L460.122794,107.482551 L472.72034,107.482551 L472.72034,119.00124 C477.512725,108.856814 485.738789,106.389051 492.451081,106.389051 C494.230687,106.389051 496.010294,106.662426 496.69703,106.802808 L496.69703,120.508496 Z" id="Fill-4" fill="#FFFFFF"></path>
                    <path d="M529.298535,107.484768 L543.550155,107.484768 L543.550155,119.136449 L529.298535,119.136449 L529.298535,153.404363 C529.298535,159.433388 531.764877,162.447901 538.477169,162.447901 C540.123859,162.447901 542.4499,162.174526 543.550155,161.901151 L543.550155,172.87309 C542.4499,173.279458 539.163905,174.106971 534.777655,174.106971 C523.546197,174.106971 516.420387,167.250433 516.420387,155.325376 L516.420387,119.136449 L503.82284,119.136449 L503.82284,107.484768 L507.374669,107.484768 C514.500479,107.484768 517.513257,103.095992 517.513257,97.340342 L517.513257,86.6565552 L529.298535,86.6565552 L529.298535,107.484768 Z" id="Fill-6" fill="#FFFFFF"></path>
                    <path d="M569.984326,173.419101 L557.106178,173.419101 L557.106178,74.1766213 L569.984326,74.1766213 L569.984326,115.160692 C574.776711,108.17116 582.448956,105.563016 589.988285,105.563016 C605.746294,105.563016 613.544072,116.941323 613.544072,131.614906 L613.544072,173.419101 L600.673308,173.419101 L600.673308,133.809293 C600.673308,124.625374 596.840877,117.222086 585.328817,117.222086 C575.463447,117.222086 570.257544,124.898749 569.984326,134.629418 L569.984326,173.419101 Z" id="Fill-8" fill="#FFFFFF"></path>
                    <polygon id="Fill-10" fill="#FFFFFF" points="732.7334 173.419101 732.7334 130.240642 683.133331 130.240642 683.133331 173.419101 669.708748 173.419101 669.708748 76.2380159 683.133331 76.2380159 683.133331 117.768836 732.7334 117.768836 732.7334 76.2380159 746.1506 76.2380159 746.1506 173.419101"></polygon>
                    <mask id="mask-2" fill="white">
                        <use xlink:href="#path-1"></use>
                    </mask>
                    <g id="Clip-13"></g>
                    <path d="M766.825787,173.420578 L779.563634,173.420578 L779.563634,107.485506 L766.825787,107.485506 L766.825787,173.420578 Z M773.12456,73.2175926 C778.337847,73.2175926 782.443495,77.3329932 782.443495,82.5345049 C782.443495,87.6104119 778.337847,91.718424 773.12456,91.718424 C768.051574,91.718424 763.95331,87.6104119 763.95331,82.5345049 C763.95331,77.3329932 768.051574,73.2175926 773.12456,73.2175926 Z" id="Fill-12" fill="#FFFFFF" mask="url(#mask-2)"></path>
                    <polygon id="Fill-14" fill="#FFFFFF" mask="url(#mask-2)" points="797.957824 173.420578 810.835972 173.420578 810.835972 74.178099 797.957824 74.178099"></polygon>
                    <polygon id="Fill-15" fill="#FFFFFF" mask="url(#mask-2)" points="829.185856 173.420578 842.064005 173.420578 842.064005 74.178099 829.185856 74.178099"></polygon>
                    <path d="M866.991787,152.177132 C867.81144,159.03367 873.017343,164.508556 882.336278,164.508556 C889.602389,164.508556 893.567736,160.393156 893.567736,155.731005 C893.567736,151.630382 890.554958,148.468099 885.075838,147.241606 L873.84438,144.773844 C863.565491,142.579456 857.399634,135.589924 857.399634,126.265624 C857.399634,115.027698 867.951741,105.430023 880.829889,105.430023 C898.91394,105.430023 904.525977,117.222086 905.906833,123.110729 L894.52769,127.366512 C893.981255,123.938243 891.23431,116.394573 880.829889,116.394573 C874.250514,116.394573 869.871648,120.642967 869.871648,125.172124 C869.871648,129.147143 872.337991,132.021274 877.403593,133.122162 L888.088616,135.449543 C900.00681,138.057687 906.312968,145.320593 906.312968,155.051262 C906.312968,164.368175 898.500421,175.473107 882.203361,175.473107 C864.111926,175.473107 856.439681,163.821425 855.34681,156.285144 L866.991787,152.177132 Z" id="Fill-16" fill="#FFFFFF" mask="url(#mask-2)"></path>
                    <path d="M276.481435,254.800593 C276.481435,222.313311 300.598426,204.211459 324.700648,204.211459 C346.897731,204.211459 362.51544,216.284286 367.448125,235.058492 L354.983495,239.447268 C351.283981,224.781073 340.598958,216.557661 324.700648,216.557661 C307.0375,216.557661 290.179236,229.435835 290.179236,254.800593 C290.179236,280.165351 307.0375,293.176519 324.700648,293.176519 C341.27831,293.176519 351.6975,283.172475 355.670231,269.873156 L367.588426,274.261931 C362.382523,292.496776 347.038032,305.515333 324.700648,305.515333 C299.638472,305.515333 276.481435,287.280488 276.481435,254.800593" id="Fill-17" fill="#FFFFFF" mask="url(#mask-2)"></path>
                    <path d="M393.706551,303.461327 L380.828403,303.461327 L380.828403,204.211459 L393.706551,204.211459 L393.706551,245.202918 C398.498935,238.213386 406.171181,235.605242 413.710509,235.605242 C429.468519,235.605242 437.266296,246.983549 437.266296,261.657132 L437.266296,303.461327 L424.388148,303.461327 L424.388148,263.851519 C424.388148,254.6676 420.563102,247.264312 409.051042,247.264312 C399.185671,247.264312 393.979769,254.940975 393.706551,264.671644 L393.706551,303.461327 Z" id="Fill-18" fill="#FFFFFF" mask="url(#mask-2)"></path>
                    <path d="M491.605583,250.550722 C489.685676,250.277347 487.765769,250.136965 485.986162,250.136965 C475.160838,250.136965 467.902111,255.900004 467.902111,270.425816 L467.902111,303.459849 L455.023963,303.459849 L455.023963,237.524777 L467.628894,237.524777 L467.628894,249.043466 C472.421278,238.89904 480.647343,236.431277 487.359634,236.431277 C489.139241,236.431277 490.918847,236.704652 491.605583,236.845034 L491.605583,250.550722 Z" id="Fill-19" fill="#FFFFFF" mask="url(#mask-2)"></path>
                    <path d="M502.653912,303.46576 L515.399144,303.46576 L515.399144,237.530688 L502.653912,237.530688 L502.653912,303.46576 Z M508.952685,203.262774 C514.165972,203.262774 518.27162,207.370786 518.27162,212.579686 C518.27162,217.648205 514.165972,221.763605 508.952685,221.763605 C503.887083,221.763605 499.774051,217.648205 499.774051,212.579686 C499.774051,207.370786 503.887083,203.262774 508.952685,203.262774 Z" id="Fill-20" fill="#FFFFFF" mask="url(#mask-2)"></path>
                    <path d="M540.180718,282.219358 C541.00037,289.068507 546.206273,294.550782 555.517824,294.550782 C562.783935,294.550782 566.756667,290.435382 566.756667,285.773231 C566.756667,281.665219 563.736505,278.510325 558.257384,277.283832 L547.025926,274.808681 C536.754421,272.621682 530.588565,265.63215 530.588565,256.30785 C530.588565,245.069924 541.140671,235.472249 554.011435,235.472249 C572.095486,235.472249 577.714907,247.264312 579.08838,253.152955 L567.71662,257.408738 C567.162801,253.980469 564.423241,246.436799 554.011435,246.436799 C547.43206,246.436799 543.060579,250.685193 543.060579,255.21435 C543.060579,259.189369 545.526921,262.0635 550.592523,263.164388 L561.270162,265.491769 C573.195741,268.099913 579.494514,275.362819 579.494514,285.093488 C579.494514,294.410401 571.689352,305.515333 555.392292,305.515333 C537.300856,305.515333 529.628611,293.863651 528.535741,286.32737 L540.180718,282.219358 Z" id="Fill-21" fill="#FFFFFF" mask="url(#mask-2)"></path>
                    <path d="M613.388264,237.526994 L627.639884,237.526994 L627.639884,249.178675 L613.388264,249.178675 L613.388264,283.446589 C613.388264,289.475614 615.854606,292.490127 622.566898,292.490127 C624.206204,292.490127 626.532245,292.216752 627.639884,291.943377 L627.639884,302.915316 C626.532245,303.321684 623.253634,304.149197 618.867384,304.149197 C607.635926,304.149197 600.510116,297.292659 600.510116,285.367602 L600.510116,249.178675 L587.905185,249.178675 L587.905185,237.526994 L591.464398,237.526994 C598.590208,237.526994 601.602986,233.138218 601.602986,227.382568 L601.602986,216.698781 L613.388264,216.698781 L613.388264,237.526994 Z" id="Fill-22" fill="#FFFFFF" mask="url(#mask-2)"></path>
                    <path d="M640.318657,303.46576 L653.063889,303.46576 L653.063889,237.530688 L640.318657,237.530688 L640.318657,303.46576 Z M646.617431,203.262774 C651.823333,203.262774 655.936366,207.370786 655.936366,212.579686 C655.936366,217.648205 651.823333,221.763605 646.617431,221.763605 C641.544444,221.763605 637.438796,217.648205 637.438796,212.579686 C637.438796,207.370786 641.544444,203.262774 646.617431,203.262774 Z" id="Fill-23" fill="#FFFFFF" mask="url(#mask-2)"></path>
                    <path d="M710.386417,275.22761 L710.386417,272.205709 L690.242157,275.22761 C684.770421,276.047734 680.664773,279.19524 680.664773,285.091272 C680.664773,290.026797 684.770421,294.688947 691.349796,294.688947 C701.894519,294.688947 710.386417,289.61304 710.386417,275.22761 M687.509981,265.770316 L705.320815,263.162171 C709.293546,262.615421 710.386417,260.561415 710.386417,258.226646 C710.386417,251.783864 706.140468,246.441971 696.142181,246.441971 C687.103847,246.441971 682.030861,252.057239 681.211208,259.733902 L668.879495,256.859771 C670.245583,244.247583 681.617343,235.470032 695.868963,235.470032 C715.592319,235.470032 723.264565,246.715346 723.264565,259.600909 L723.264565,292.627553 C723.264565,298.390591 723.811,301.818861 724.084218,303.45911 L711.479287,303.45911 C711.206069,301.818861 710.799935,299.351098 710.799935,294.548566 C707.920074,299.210716 701.340699,305.520505 689.57019,305.520505 C676.138222,305.520505 667.506023,296.196204 667.506023,285.778403 C667.506023,273.98634 676.138222,267.403176 687.509981,265.770316" id="Fill-24" fill="#FFFFFF" mask="url(#mask-2)"></path>
                    <path d="M753.59541,303.461327 L740.717262,303.461327 L740.717262,237.526255 L753.322192,237.526255 L753.322192,246.983549 C758.114576,238.760136 765.927123,235.605242 773.599368,235.605242 C789.357377,235.605242 797.155155,246.983549 797.155155,261.657132 L797.155155,303.461327 L784.277007,303.461327 L784.277007,263.851519 C784.277007,254.6676 780.451961,247.264312 768.9399,247.264312 C758.801312,247.264312 753.59541,255.347343 753.59541,265.351387 L753.59541,303.461327 Z" id="Fill-25" fill="#FFFFFF" mask="url(#mask-2)"></path>
                    <path d="M847.153236,254.800593 C847.153236,222.313311 871.270227,204.211459 895.379833,204.211459 C917.569532,204.211459 933.187241,216.284286 938.119926,235.058492 L925.655296,239.447268 C921.955782,224.781073 911.270759,216.557661 895.379833,216.557661 C877.709301,216.557661 860.851037,229.435835 860.851037,254.800593 C860.851037,280.165351 877.709301,293.176519 895.379833,293.176519 C911.957495,293.176519 922.369301,283.172475 926.342032,269.873156 L938.260227,274.261931 C933.054324,292.496776 917.709833,305.515333 895.379833,305.515333 C870.310273,305.515333 847.153236,287.280488 847.153236,254.800593" id="Fill-26" fill="#FFFFFF" mask="url(#mask-2)"></path>
                    <path d="M964.385736,303.461327 L951.507588,303.461327 L951.507588,204.211459 L964.385736,204.211459 L964.385736,245.202918 C969.17812,238.213386 976.842981,235.605242 984.38231,235.605242 C1000.14032,235.605242 1007.94548,246.983549 1007.94548,261.657132 L1007.94548,303.461327 L995.067333,303.461327 L995.067333,263.851519 C995.067333,254.6676 991.234903,247.264312 979.722843,247.264312 C969.864856,247.264312 964.658954,254.940975 964.385736,264.671644 L964.385736,303.461327 Z" id="Fill-27" fill="#FFFFFF" mask="url(#mask-2)"></path>
                    <path d="M1049.56464,305.517549 C1034.22015,305.517549 1024.90122,293.998861 1024.90122,279.059291 L1024.90122,237.528471 L1037.77937,237.528471 L1037.77937,277.138279 C1037.77937,286.189204 1041.8924,294.139242 1052.71772,294.139242 C1063.12953,294.139242 1068.33543,287.282704 1068.33543,277.286049 L1068.33543,237.528471 L1081.21358,237.528471 L1081.21358,291.257723 C1081.21358,296.466623 1081.61971,301.128774 1081.89293,303.463543 L1069.5686,303.463543 C1069.29538,301.956287 1069.02217,298.254643 1069.02217,295.513505 C1065.45557,302.362655 1057.23689,305.517549 1049.56464,305.517549" id="Fill-28" fill="#FFFFFF" mask="url(#mask-2)"></path>
                    <path d="M1136.40132,250.550722 C1134.48141,250.277347 1132.5615,250.136965 1130.7819,250.136965 C1119.95657,250.136965 1112.69784,255.900004 1112.69784,270.425816 L1112.69784,303.459849 L1099.82708,303.459849 L1099.82708,237.524777 L1112.42463,237.524777 L1112.42463,249.043466 C1117.21701,238.89904 1125.44308,236.431277 1132.15537,236.431277 C1133.93497,236.431277 1135.71458,236.704652 1136.40132,236.845034 L1136.40132,250.550722 Z" id="Fill-29" fill="#FFFFFF" mask="url(#mask-2)"></path>
                    <path d="M1155.90758,270.429511 C1155.90758,285.502073 1165.35943,293.592492 1176.05184,293.592492 C1188.37616,293.592492 1192.90272,285.228698 1194.40172,280.027186 L1205.77348,284.955323 C1202.6204,294.412617 1193.16855,305.517549 1176.05184,305.517549 C1156.86753,305.517549 1142.75621,290.437598 1142.75621,270.429511 C1142.75621,249.867285 1157.14075,235.474465 1175.90415,235.474465 C1193.44177,235.474465 1202.48748,246.439015 1205.22704,256.443059 L1193.58207,261.378585 C1191.93538,254.935803 1187.13561,247.399522 1175.90415,247.399522 C1165.49973,247.399522 1155.90758,255.076185 1155.90758,270.429511" id="Fill-30" fill="#FFFFFF" mask="url(#mask-2)"></path>
                    <path d="M1231.30825,303.461327 L1218.4301,303.461327 L1218.4301,204.211459 L1231.30825,204.211459 L1231.30825,245.202918 C1236.10063,238.213386 1243.77288,235.605242 1251.31221,235.605242 C1267.06283,235.605242 1274.86799,246.983549 1274.86799,261.657132 L1274.86799,303.461327 L1261.98984,303.461327 L1261.98984,263.851519 C1261.98984,254.6676 1258.1648,247.264312 1246.65274,247.264312 C1236.78737,247.264312 1231.58147,254.940975 1231.30825,264.671644 L1231.30825,303.461327 Z" id="Fill-31" fill="#FFFFFF" mask="url(#mask-2)"></path>
                    <path d="M54.1820023,86.1423148 C52.2030208,77.815463 50.8147801,70.0870805 49.6259144,62.5507993 C49.8252894,70.0870805 50.0246644,77.815463 50.0246644,86.5412944 L50.0246644,177.538195 L38.7267477,177.538195 L38.7267477,38.759794 L55.5702431,38.759794 L75.5815856,124.207923 C77.5679514,132.734265 78.9488079,140.470036 80.1450579,147.998929 C79.9382986,140.470036 79.5469329,132.734265 79.5469329,124.008433 L79.5469329,38.759794 L91.0368403,38.759794 L91.0368403,177.538195 L76.3790856,177.538195 L54.1820023,86.1423148 Z" id="Fill-32" fill="#FFFFFF" mask="url(#mask-2)"></path>
                    <path d="M52.0043843,324.341997 C52.0043843,335.040561 52.595125,338.417111 62.3128102,338.417111 L67.4596389,338.417111 C77.1699398,338.417111 77.7606806,335.040561 77.7606806,324.341997 L77.7606806,293.805282 L90.247463,293.805282 L90.247463,326.920588 C90.247463,345.155433 85.89075,350.512103 68.8478796,350.512103 L60.3264444,350.512103 C43.2835741,350.512103 38.7274861,345.155433 38.7274861,326.920588 L38.7274861,233.345096 C38.7274861,215.102863 43.2835741,209.746192 60.3264444,209.746192 L68.8478796,209.746192 C85.89075,209.746192 90.247463,215.102863 90.247463,233.345096 L90.247463,260.497874 L77.7606806,260.497874 L77.7606806,235.916298 C77.7606806,225.210346 77.1699398,221.841185 67.4596389,221.841185 L62.3128102,221.841185 C52.595125,221.841185 52.0043843,225.210346 52.0043843,235.916298 L52.0043843,324.341997 Z" id="Fill-33" fill="#FFFFFF" mask="url(#mask-2)"></path>
                    <path d="M136.504678,324.341997 C136.504678,335.040561 137.095419,338.417111 146.813104,338.417111 L151.959933,338.417111 C161.66285,338.417111 162.260975,335.040561 162.260975,324.341997 L162.260975,293.805282 L174.747757,293.805282 L174.747757,326.920588 C174.747757,345.155433 170.38366,350.512103 153.348174,350.512103 L144.826738,350.512103 C127.783868,350.512103 123.22778,345.155433 123.22778,326.920588 L123.22778,233.345096 C123.22778,215.102863 127.783868,209.746192 144.826738,209.746192 L153.348174,209.746192 C170.38366,209.746192 174.747757,215.102863 174.747757,233.345096 L174.747757,260.497874 L162.260975,260.497874 L162.260975,235.916298 C162.260975,225.210346 161.66285,221.841185 151.959933,221.841185 L146.813104,221.841185 C137.095419,221.841185 136.504678,225.210346 136.504678,235.916298 L136.504678,324.341997 Z" id="Fill-34" fill="#FFFFFF" mask="url(#mask-2)"></path>
                    <polygon id="Fill-35" fill="#FFFFFF" mask="url(#mask-2)" points="123.229257 177.538934 123.229257 38.7605329 136.30678 38.7605329 136.30678 98.8365155 162.262451 98.8365155 162.262451 38.7605329 175.347359 38.7605329 175.347359 177.538934 162.262451 177.538934 162.262451 110.732018 136.30678 110.732018 136.30678 177.538934"></polygon>
                    <path d="M13.0775231,376.176096 L200.992153,376.176096 L200.992153,13.0898904 L13.0775231,13.0898904 L13.0775231,376.176096 Z M0,389.261149 L214.069676,389.261149 L214.069676,0.0122260015 L0,0.0122260015 L0,389.261149 Z" id="Fill-36" fill="#FFFFFF" mask="url(#mask-2)"></path>
                </g>
            </g>
        </g>
    </g>
</svg>