<?xml version="1.0" encoding="UTF-8"?>
<svg width="1920px" height="1080px" viewBox="0 0 1920 1080" version="1.1" xmlns="http://www.w3.org/2000/svg" xmlns:xlink="http://www.w3.org/1999/xlink" style="background: #F7F6F6;">
    <!-- Generator: Sketch 48.2 (47327) - http://www.bohemiancoding.com/sketch -->
    <title>Artboard Copy 16</title>
    <desc>Created with Sketch.</desc>
    <defs>
        <polygon id="path-1" points="0 323.273189 177.688026 323.273189 177.688026 0 0 0"></polygon>
    </defs>
    <g id="Page-1" stroke="none" stroke-width="1" fill="none" fill-rule="evenodd">
        <g id="Artboard-Copy-16">
            <g id="Page-1-Copy" transform="translate(871.000000, 378.000000)">
                <path d="M44.9761245,71.5336541 C43.3317019,64.6216541 42.1800229,58.2000324 41.19162,51.9418703 C41.3578116,58.2000324 41.5210876,64.6216541 41.5210876,71.8634919 L41.5210876,147.440141 L32.1472957,147.440141 L32.1472957,32.1837081 L46.1278034,32.1837081 L62.7382211,103.148465 C64.3826437,110.229762 65.5343227,116.648465 66.5227256,122.909546 C66.3536183,116.648465 66.0270663,110.229762 66.0270663,102.982086 L66.0270663,32.1837081 L75.56705,32.1837081 L75.56705,147.440141 L63.3942408,147.440141 L44.9761245,71.5336541 Z" id="Fill-1" fill="#0D0D0D"></path>
                <path d="M43.1652187,269.355795 C43.1652187,278.249741 43.6579623,281.048984 51.719715,281.048984 L55.9911319,281.048984 C64.0528845,281.048984 64.5456282,278.249741 64.5456282,269.355795 L64.5456282,243.999146 L74.9078231,243.999146 L74.9078231,271.498281 C74.9078231,286.64747 71.2895102,291.090065 57.1457265,291.090065 L50.0723767,291.090065 C35.9315086,291.090065 32.1470041,286.64747 32.1470041,271.498281 L32.1470041,193.782065 C32.1470041,178.632876 35.9315086,174.187362 50.0723767,174.187362 L57.1457265,174.187362 C71.2895102,174.187362 74.9078231,178.632876 74.9078231,193.782065 L74.9078231,216.33947 L64.5456282,216.33947 L64.5456282,195.924551 C64.5456282,187.033524 64.0528845,184.231362 55.9911319,184.231362 L51.719715,184.231362 C43.6579623,184.231362 43.1652187,187.033524 43.1652187,195.924551 L43.1652187,269.355795 Z" id="Fill-3" fill="#0D0D0D"></path>
                <path d="M113.305674,269.355795 C113.305674,278.249741 113.798418,281.048984 121.857255,281.048984 L126.131587,281.048984 C134.190424,281.048984 134.686084,278.249741 134.686084,269.355795 L134.686084,243.999146 L145.048278,243.999146 L145.048278,271.498281 C145.048278,286.64747 141.429966,291.090065 127.286182,291.090065 L120.212832,291.090065 C106.069048,291.090065 102.287459,286.64747 102.287459,271.498281 L102.287459,193.782065 C102.287459,178.632876 106.069048,174.187362 120.212832,174.187362 L127.286182,174.187362 C141.429966,174.187362 145.048278,178.632876 145.048278,193.782065 L145.048278,216.33947 L134.686084,216.33947 L134.686084,195.924551 C134.686084,187.033524 134.190424,184.231362 126.131587,184.231362 L121.857255,184.231362 C113.798418,184.231362 113.305674,187.033524 113.305674,195.924551 L113.305674,269.355795 Z" id="Fill-5" fill="#0D0D0D"></path>
                <polygon id="Fill-7" fill="#0D0D0D" points="102.286585 147.439557 102.286585 32.1831243 113.141523 32.1831243 113.141523 82.0703676 134.685209 82.0703676 134.685209 32.1831243 145.543063 32.1831243 145.543063 147.439557 134.685209 147.439557 134.685209 91.9509081 113.141523 91.9509081 113.141523 147.439557"></polygon>
                <mask id="mask-2" fill="white">
                    <use xlink:href="#path-1"></use>
                </mask>
                <g id="Clip-10"></g>
                <path d="M10.8549386,312.406054 L166.836003,312.406054 L166.836003,10.8642162 L10.8549386,10.8642162 L10.8549386,312.406054 Z M0,323.273189 L177.688026,323.273189 L177.688026,0 L0,0 L0,323.273189 Z" id="Fill-9" fill="#0D0D0D" mask="url(#mask-2)"></path>
            </g>
        </g>
    </g>
</svg>