<?xml version="1.0" encoding="UTF-8"?>
<svg width="1920px" height="1080px" viewBox="0 0 1920 1080" version="1.1" xmlns="http://www.w3.org/2000/svg" xmlns:xlink="http://www.w3.org/1999/xlink" style="background: #F1EDEF;">
    <!-- Generator: Sketch 48.2 (47327) - http://www.bohemiancoding.com/sketch -->
    <title>Artboard Copy 25</title>
    <desc>Created with Sketch.</desc>
    <defs></defs>
    <g id="Page-1" stroke="none" stroke-width="1" fill="none" fill-rule="evenodd">
        <g id="Artboard-Copy-25">
            <path d="M102.262,134.69 C93.844,134.69 86.07,128.572 86.07,117.67 C86.07,106.768 94.166,100.696 102.262,100.696 C109.714,100.696 114.958,104.744 116.614,111.046 L112.428,112.518 C111.186,107.596 107.598,104.836 102.262,104.836 C96.328,104.836 90.67,109.16 90.67,117.67 C90.67,126.18 96.328,130.55 102.262,130.55 C107.828,130.55 111.324,127.192 112.658,122.73 L116.66,124.202 C114.912,130.32 109.76,134.69 102.262,134.69 Z M126.208833,134 L121.930833,134 L121.930833,111.874 L126.208833,111.874 L126.208833,134 Z M120.964833,103.502 C120.964833,101.754 122.344833,100.374 124.046833,100.374 C125.794833,100.374 127.174833,101.754 127.174833,103.502 C127.174833,105.204 125.794833,106.584 124.046833,106.584 C122.344833,106.584 120.964833,105.204 120.964833,103.502 Z M145.601667,111.644 L145.601667,116.244 C144.957667,116.152 144.313667,116.106 143.715667,116.106 C140.081667,116.106 137.643667,118.038 137.643667,122.914 L137.643667,134 L133.319667,134 L133.319667,111.874 L137.551667,111.874 L137.551667,115.738 C139.161667,112.334 141.921667,111.506 144.175667,111.506 C144.773667,111.506 145.371667,111.598 145.601667,111.644 Z M159.0145,115.186 C155.5185,115.186 152.2985,117.762 152.2985,122.914 C152.2985,127.974 155.4725,130.688 159.0605,130.688 C163.2005,130.688 164.7185,127.882 165.2245,126.134 L169.0425,127.79 C167.9845,130.964 164.8105,134.69 159.0605,134.69 C152.6205,134.69 147.8825,129.63 147.8825,122.914 C147.8825,116.014 152.7125,111.184 159.0145,111.184 C164.9025,111.184 167.9385,114.864 168.8585,118.222 L164.9485,119.878 C164.3965,117.716 162.7865,115.186 159.0145,115.186 Z M188.205334,131.332 C187.009334,133.632 184.249334,134.69 181.673334,134.69 C176.521334,134.69 173.393334,130.826 173.393334,125.812 L173.393334,111.874 L177.717334,111.874 L177.717334,125.168 C177.717334,128.204 179.097334,130.872 182.731334,130.872 C186.227334,130.872 187.975334,128.572 187.975334,125.214 L187.975334,111.874 L192.299334,111.874 L192.299334,129.906 C192.299334,131.654 192.437334,133.218 192.529334,134 L188.389334,134 C188.297334,133.494 188.205334,132.252 188.205334,131.332 Z M203.734167,134 L199.410167,134 L199.410167,100.696 L203.734167,100.696 L203.734167,134 Z M209.465,128.066 C209.465,124.11 212.363,121.902 216.181,121.35 L222.161,120.476 C223.495,120.292 223.863,119.602 223.863,118.82 C223.863,116.658 222.437,114.864 219.079,114.864 C216.043,114.864 214.341,116.75 214.065,119.326 L209.925,118.36 C210.385,114.128 214.203,111.184 218.987,111.184 C225.611,111.184 228.187,114.956 228.187,119.28 L228.187,130.366 C228.187,132.298 228.371,133.448 228.463,134 L224.231,134 C224.139,133.448 224.001,132.62 224.001,131.01 C223.035,132.574 220.827,134.69 216.871,134.69 C212.363,134.69 209.465,131.562 209.465,128.066 Z M217.469,131.056 C221.011,131.056 223.863,129.354 223.863,124.524 L223.863,123.512 L217.101,124.524 C215.261,124.8 213.881,125.858 213.881,127.836 C213.881,129.492 215.261,131.056 217.469,131.056 Z M246.935834,111.644 L246.935834,116.244 C246.291834,116.152 245.647834,116.106 245.049834,116.106 C241.415834,116.106 238.977834,118.038 238.977834,122.914 L238.977834,134 L234.653834,134 L234.653834,111.874 L238.885834,111.874 L238.885834,115.738 C240.495834,112.334 243.255834,111.506 245.509834,111.506 C246.107834,111.506 246.705834,111.598 246.935834,111.644 Z M246.686667,131.056 C246.686667,129.4 248.112667,127.974 250.044667,127.974 C252.022667,127.974 253.770667,129.446 253.770667,132.344 C253.770667,138.416 249.814667,140.946 246.962667,141.314 L246.962667,138.922 C249.216667,138.416 250.734667,136.162 250.780667,133.954 C250.642667,134.046 250.274667,134.184 249.768667,134.184 C248.066667,134.184 246.686667,133.034 246.686667,131.056 Z M289.014334,134 L281.562334,120.66 L276.686334,120.66 L276.686334,134 L272.132334,134 L272.132334,101.386 L284.414334,101.386 C290.578334,101.386 294.396334,105.71 294.396334,111.092 C294.396334,115.784 291.406334,119.418 286.484334,120.338 L294.258334,134 L289.014334,134 Z M276.686334,116.612 L283.586334,116.612 C287.266334,116.612 289.750334,114.45 289.750334,111.092 C289.750334,107.642 287.266334,105.434 283.586334,105.434 L276.686334,105.434 L276.686334,116.612 Z M301.783167,120.66 L313.881167,120.66 C313.789167,117.486 311.719167,115.002 307.809167,115.002 C304.175167,115.002 301.967167,117.808 301.783167,120.66 Z M314.525167,126.41 L318.251167,127.698 C317.009167,131.608 313.467167,134.69 308.315167,134.69 C302.381167,134.69 297.183167,130.366 297.183167,122.868 C297.183167,115.922 302.197167,111.184 307.763167,111.184 C314.571167,111.184 318.389167,115.876 318.389167,122.776 C318.389167,123.328 318.343167,123.88 318.297167,124.156 L301.645167,124.156 C301.737167,128.112 304.589167,130.872 308.315167,130.872 C311.903167,130.872 313.697167,128.894 314.525167,126.41 Z M322.050001,135.196 L326.236001,134.23 C326.558001,137.312 328.904001,139.658 332.262001,139.658 C336.908001,139.658 339.024001,137.266 339.024001,132.482 L339.024001,129.308 C337.966001,131.332 335.574001,132.942 332.262001,132.942 C326.374001,132.942 322.096001,128.48 322.096001,122.224 C322.096001,116.244 326.190001,111.46 332.262001,111.46 C335.666001,111.46 337.966001,112.748 339.070001,114.956 L339.070001,111.874 L343.348001,111.874 L343.348001,132.344 C343.348001,137.956 340.588001,143.43 332.262001,143.43 C326.742001,143.43 322.602001,139.934 322.050001,135.196 Z M332.906001,129.308 C336.632001,129.308 339.208001,126.502 339.208001,122.224 C339.208001,117.946 336.632001,115.14 332.906001,115.14 C329.088001,115.14 326.512001,117.946 326.512001,122.224 C326.512001,126.548 328.996001,129.308 332.906001,129.308 Z M364.350834,131.332 C363.154834,133.632 360.394834,134.69 357.818834,134.69 C352.666834,134.69 349.538834,130.826 349.538834,125.812 L349.538834,111.874 L353.862834,111.874 L353.862834,125.168 C353.862834,128.204 355.242834,130.872 358.876834,130.872 C362.372834,130.872 364.120834,128.572 364.120834,125.214 L364.120834,111.874 L368.444834,111.874 L368.444834,129.906 C368.444834,131.654 368.582834,133.218 368.674834,134 L364.534834,134 C364.442834,133.494 364.350834,132.252 364.350834,131.332 Z M379.879668,134 L375.555668,134 L375.555668,100.696 L379.879668,100.696 L379.879668,134 Z M385.610501,128.066 C385.610501,124.11 388.508501,121.902 392.326501,121.35 L398.306501,120.476 C399.640501,120.292 400.008501,119.602 400.008501,118.82 C400.008501,116.658 398.582501,114.864 395.224501,114.864 C392.188501,114.864 390.486501,116.75 390.210501,119.326 L386.070501,118.36 C386.530501,114.128 390.348501,111.184 395.132501,111.184 C401.756501,111.184 404.332501,114.956 404.332501,119.28 L404.332501,130.366 C404.332501,132.298 404.516501,133.448 404.608501,134 L400.376501,134 C400.284501,133.448 400.146501,132.62 400.146501,131.01 C399.180501,132.574 396.972501,134.69 393.016501,134.69 C388.508501,134.69 385.610501,131.562 385.610501,128.066 Z M393.614501,131.056 C397.156501,131.056 400.008501,129.354 400.008501,124.524 L400.008501,123.512 L393.246501,124.524 C391.406501,124.8 390.026501,125.858 390.026501,127.836 C390.026501,129.492 391.406501,131.056 393.614501,131.056 Z M423.081334,111.644 L423.081334,116.244 C422.437334,116.152 421.793334,116.106 421.195334,116.106 C417.561334,116.106 415.123334,118.038 415.123334,122.914 L415.123334,134 L410.799334,134 L410.799334,111.874 L415.031334,111.874 L415.031334,115.738 C416.641334,112.334 419.401334,111.506 421.655334,111.506 C422.253334,111.506 422.851334,111.598 423.081334,111.644 Z" id="Circular,-Regular" fill="#AF0556"></path>
            <path d="M142.420072,675.143881 L134.668819,655.212087 L103.059813,655.212087 L95.5098907,675.143881 L84.94,675.143881 L113.327706,603.771952 L124.702922,603.771952 L153.090628,675.143881 L142.420072,675.143881 Z M118.76365,614.039846 L106.583109,646.051515 L131.145522,646.051515 L118.76365,614.039846 Z M162.611919,603.771952 L185.865679,603.771952 C199.455538,603.771952 207.408122,611.825202 207.408122,623.099752 C207.408122,630.75034 202.978835,636.186284 196.737566,638.501593 C204.891482,640.514906 209.622766,647.762831 209.622766,655.715415 C209.622766,666.989965 200.663526,675.143881 187.576994,675.143881 L162.611919,675.143881 L162.611919,603.771952 Z M172.47715,634.978296 L184.758357,634.978296 C192.710941,634.978296 197.442225,630.247012 197.442225,623.60308 C197.442225,616.858484 192.50961,612.429196 184.355694,612.429196 L172.47715,612.429196 L172.47715,634.978296 Z M172.47715,666.486637 L186.167675,666.486637 C194.12026,666.486637 199.556204,662.057349 199.556204,655.111421 C199.556204,648.266159 195.227582,643.434209 186.570338,643.434209 L172.47715,643.434209 L172.47715,666.486637 Z M253.571701,676.653865 C235.149891,676.653865 218.1374,663.265337 218.1374,639.407584 C218.1374,615.54983 235.854551,602.261968 253.571701,602.261968 C269.879532,602.261968 281.355413,611.120543 284.979376,624.911734 L275.818804,628.133034 C273.100832,617.361812 265.248913,611.321874 253.571701,611.321874 C240.585835,611.321874 228.203963,620.784443 228.203963,639.407584 C228.203963,658.030724 240.585835,667.593959 253.571701,667.593959 C265.752241,667.593959 273.402829,660.245368 276.322132,650.480802 L285.080041,653.702102 C281.254748,667.090631 269.980198,676.653865 253.571701,676.653865 Z M307.486532,666.385971 L322.083048,666.385971 C335.270245,666.385971 346.343464,657.527396 346.343464,639.608915 C346.343464,621.589768 335.471576,612.529862 322.284379,612.529862 L307.486532,612.529862 L307.486532,666.385971 Z M322.385045,675.143881 L297.621301,675.143881 L297.621301,603.771952 L322.586376,603.771952 C340.706189,603.771952 356.510692,616.153824 356.510692,639.608915 C356.510692,662.96334 340.504857,675.143881 322.385045,675.143881 Z M412.942164,675.143881 L369.555279,675.143881 L369.555279,603.771952 L412.942164,603.771952 L412.942164,612.932524 L379.42051,612.932524 L379.42051,634.87763 L409.821529,634.87763 L409.821529,644.138868 L379.42051,644.138868 L379.42051,665.983309 L412.942164,665.983309 L412.942164,675.143881 Z M437.361967,675.143881 L427.496736,675.143881 L427.496736,603.771952 L470.88362,603.771952 L470.88362,612.932524 L437.361967,612.932524 L437.361967,635.884287 L467.762986,635.884287 L467.762986,645.145524 L437.361967,645.145524 L437.361967,675.143881 Z M543.723589,675.143881 L535.771005,675.143881 L534.865014,665.077318 C531.74438,670.714593 523.993127,676.653865 512.013917,676.653865 C494.095436,676.653865 477.384942,663.567334 477.384942,639.407584 C477.384942,615.247834 495.102092,602.261968 512.718577,602.261968 C528.221083,602.261968 540.200292,610.919212 544.327583,623.804412 L535.368342,627.629705 C532.147042,617.361812 523.791795,611.321874 512.718577,611.321874 C499.934042,611.321874 487.451505,620.482446 487.451505,639.407584 C487.451505,658.332721 499.53138,667.694624 512.315914,667.694624 C528.221083,667.694624 533.959024,656.420074 534.361686,649.071484 L509.597942,649.071484 L509.597942,640.212909 L543.723589,640.212909 L543.723589,675.143881 Z M614.550246,675.143881 L604.685014,675.143881 L604.685014,643.434209 L568.244058,643.434209 L568.244058,675.143881 L558.378827,675.143881 L558.378827,603.771952 L568.244058,603.771952 L568.244058,634.273637 L604.685014,634.273637 L604.685014,603.771952 L614.550246,603.771952 L614.550246,675.143881 Z M642.191349,675.143881 L632.124786,675.143881 L632.124786,603.771952 L642.191349,603.771952 L642.191349,675.143881 Z M652.719296,653.903434 L652.719296,649.272815 L662.584527,647.058171 L662.584527,653.802768 C662.584527,663.265337 667.718474,667.493293 674.865733,667.493293 C682.113658,667.493293 686.542946,662.762009 686.542946,654.507427 L686.542946,603.771952 L696.408177,603.771952 L696.408177,653.802768 C696.408177,666.285306 688.254262,676.653865 674.966399,676.653865 C660.973877,676.653865 652.719296,667.593959 652.719296,653.903434 Z M757.168271,675.143881 L733.008521,642.729549 L722.841293,653.601437 L722.841293,675.143881 L712.976062,675.143881 L712.976062,603.771952 L722.841293,603.771952 L722.841293,640.514906 L756.262281,603.771952 L769.248146,603.771952 L739.551787,635.58229 L769.650809,675.143881 L757.168271,675.143881 Z M823.263643,675.143881 L779.675427,675.143881 L779.675427,603.771952 L789.540659,603.771952 L789.540659,665.882643 L823.263643,665.882643 L823.263643,675.143881 Z M911.404787,675.143881 L901.640222,675.143881 L901.640222,619.576455 L877.27914,675.143881 L868.219234,675.143881 L844.059484,619.576455 L844.059484,675.143881 L834.294918,675.143881 L834.294918,603.771952 L847.683446,603.771952 L872.849853,661.856018 L898.21759,603.771952 L911.404787,603.771952 L911.404787,675.143881 Z M987.667388,675.143881 L977.399494,675.143881 L938.844559,616.959149 L938.844559,675.143881 L928.979328,675.143881 L928.979328,603.771952 L942.166525,603.771952 L977.802156,658.534052 L977.802156,603.771952 L987.667388,603.771952 L987.667388,675.143881 Z M1010.77854,639.407584 C1010.77854,658.030724 1023.26108,667.593959 1036.54894,667.593959 C1049.8368,667.593959 1062.31934,658.030724 1062.31934,639.407584 C1062.31934,620.784443 1049.8368,611.321874 1036.54894,611.321874 C1023.26108,611.321874 1010.77854,620.784443 1010.77854,639.407584 Z M1000.71198,639.407584 C1000.71198,615.54983 1018.63046,602.261968 1036.54894,602.261968 C1054.46742,602.261968 1072.3859,615.54983 1072.3859,639.407584 C1072.3859,663.265337 1054.46742,676.653865 1036.54894,676.653865 C1018.63046,676.653865 1000.71198,663.265337 1000.71198,639.407584 Z M1095.29572,637.092274 L1109.59024,637.092274 C1118.14682,637.092274 1123.38143,632.36099 1123.38143,625.012399 C1123.38143,617.462477 1118.14682,612.630527 1109.59024,612.630527 L1095.29572,612.630527 L1095.29572,637.092274 Z M1111.40222,645.950849 L1095.29572,645.950849 L1095.29572,675.143881 L1085.43049,675.143881 L1085.43049,603.771952 L1111.40222,603.771952 C1124.58942,603.771952 1133.44799,612.932524 1133.44799,624.911734 C1133.44799,636.991609 1124.58942,645.950849 1111.40222,645.950849 Z M1140.45264,639.407584 C1140.45264,615.54983 1158.37112,602.261968 1176.2896,602.261968 C1194.20809,602.261968 1212.12657,615.54983 1212.12657,639.407584 C1212.12657,650.682134 1208.09994,659.540709 1202.06,665.781978 L1210.41525,675.143881 L1203.67065,681.083153 L1195.01341,671.519918 C1189.37614,674.942549 1182.83287,676.653865 1176.2896,676.653865 C1158.37112,676.653865 1140.45264,663.265337 1140.45264,639.407584 Z M1150.5192,639.407584 C1150.5192,658.030724 1163.00174,667.593959 1176.2896,667.593959 C1180.71889,667.593959 1184.94685,666.587303 1188.77214,664.473324 L1176.39027,650.581468 L1183.23553,644.642196 L1195.71807,658.735384 C1199.54336,654.104765 1202.06,647.662165 1202.06,639.407584 C1202.06,620.784443 1189.57747,611.321874 1176.2896,611.321874 C1163.00174,611.321874 1150.5192,620.784443 1150.5192,639.407584 Z M1262.11544,675.143881 L1245.80761,645.950849 L1235.13705,645.950849 L1235.13705,675.143881 L1225.17115,675.143881 L1225.17115,603.771952 L1252.04888,603.771952 C1265.53807,603.771952 1273.89332,613.234521 1273.89332,625.012399 C1273.89332,635.280293 1267.35005,643.232877 1256.57883,645.24619 L1273.59132,675.143881 L1262.11544,675.143881 Z M1235.13705,637.092274 L1250.23689,637.092274 C1258.29014,637.092274 1263.72609,632.36099 1263.72609,625.012399 C1263.72609,617.462477 1258.29014,612.630527 1250.23689,612.630527 L1235.13705,612.630527 L1235.13705,637.092274 Z M1332.43877,619.979118 L1323.58019,623.099752 C1322.77487,617.965805 1318.44625,610.919212 1308.48035,610.919212 C1300.4271,610.919212 1294.68916,616.153824 1294.68916,622.797755 C1294.68916,627.931702 1297.80979,631.857662 1303.84973,633.166315 L1314.52029,635.481624 C1326.39883,638.098931 1333.04276,645.548187 1333.04276,655.514084 C1333.04276,666.587303 1323.58019,676.653865 1308.37968,676.653865 C1291.16586,676.653865 1283.01194,665.580646 1281.70329,655.413418 L1291.16586,652.393449 C1291.87052,660.346034 1297.50779,667.694624 1308.27902,667.694624 C1318.14425,667.694624 1322.9762,662.560678 1322.9762,656.319409 C1322.9762,651.185462 1319.4529,646.756174 1312.30564,645.24619 L1302.13841,643.031546 C1291.97119,640.816902 1284.72326,634.172971 1284.72326,623.502415 C1284.72326,612.32853 1295.09182,602.261968 1308.27902,602.261968 C1324.38552,602.261968 1330.82812,612.227865 1332.43877,619.979118 Z M1395.11151,612.932524 L1371.25375,612.932524 L1371.25375,675.143881 L1361.38852,675.143881 L1361.38852,612.932524 L1337.53077,612.932524 L1337.53077,603.771952 L1395.11151,603.771952 L1395.11151,612.932524 Z M1429.29588,676.653865 C1414.80003,676.653865 1403.62614,667.593959 1403.62614,650.782799 L1403.62614,603.771952 L1413.39071,603.771952 L1413.39071,650.480802 C1413.39071,661.35269 1419.32998,667.493293 1429.29588,667.493293 C1439.36244,667.493293 1445.10038,661.35269 1445.10038,650.480802 L1445.10038,603.771952 L1454.96561,603.771952 L1454.96561,650.782799 C1454.96561,667.593959 1443.79173,676.653865 1429.29588,676.653865 Z M1495.49191,662.460012 L1517.23569,603.771952 L1527.60425,603.771952 L1500.12253,675.143881 L1490.35797,675.143881 L1463.48025,603.771952 L1473.94947,603.771952 L1495.49191,662.460012 Z M1603.06152,660.245368 L1618.46336,603.771952 L1628.63059,603.771952 L1608.29614,675.143881 L1598.12891,675.143881 L1579.50577,617.261146 L1561.08396,675.143881 L1551.21873,675.143881 L1530.58227,603.771952 L1540.7495,603.771952 L1556.45334,659.641374 L1574.37182,603.771952 L1584.74038,603.771952 L1603.06152,660.245368 Z M1691.706,603.771952 L1667.44558,639.407584 L1691.404,675.143881 L1679.62612,675.143881 L1661.60697,647.259502 L1643.18516,675.143881 L1631.60862,675.143881 L1655.9697,639.407584 L1631.80995,603.771952 L1643.68849,603.771952 L1661.70764,631.756996 L1680.02878,603.771952 L1691.706,603.771952 Z M1719.3471,644.642196 L1694.18069,603.771952 L1706.05924,603.771952 L1724.58171,635.58229 L1743.10419,603.771952 L1754.37874,603.771952 L1729.21233,644.642196 L1729.21233,675.143881 L1719.3471,675.143881 L1719.3471,644.642196 Z M1814.9375,675.143881 L1759.8734,675.143881 L1759.8734,665.278649 L1802.45496,612.932524 L1760.88006,612.932524 L1760.88006,603.771952 L1814.43417,603.771952 L1814.43417,613.335187 L1771.65128,665.882643 L1814.9375,665.882643 L1814.9375,675.143881 Z" id="ABCDEFGHIJKLMNOPQRST" fill="#121212"></path>
            <path d="M88.966625,813.53275 C88.966625,804.875506 95.3085594,800.043556 103.663806,798.835568 L116.750338,796.922921 C119.669641,796.520259 120.474966,795.010275 120.474966,793.298959 C120.474966,788.567675 117.354331,784.641715 110.005741,784.641715 C103.361809,784.641715 99.6371813,788.769006 99.0331876,794.406281 L89.9732813,792.292303 C90.9799375,783.031065 99.3351845,776.588465 109.80441,776.588465 C124.30026,776.588465 129.937535,784.843046 129.937535,794.305615 L129.937535,818.566031 C129.937535,822.793987 130.340197,825.310628 130.541528,826.518615 L121.280291,826.518615 C121.07896,825.310628 120.776963,823.498647 120.776963,819.97535 C118.662985,823.397981 113.831035,828.0286 105.173791,828.0286 C95.3085594,828.0286 88.966625,821.183337 88.966625,813.53275 Z M106.482444,820.076015 C114.233697,820.076015 120.474966,816.351387 120.474966,805.781496 L120.474966,803.566853 L105.677119,805.781496 C101.650494,806.38549 98.6305251,808.7008 98.6305251,813.029422 C98.6305251,816.653384 101.650494,820.076015 106.482444,820.076015 Z M153.451347,826.518615 L144.089444,826.518615 L144.089444,753.636702 L153.451347,753.636702 L153.451347,784.943712 C155.766657,780.61509 161.403932,776.689131 169.457182,776.689131 C184.154363,776.689131 191.704285,787.963681 191.704285,802.056868 C191.704285,816.452053 183.550369,827.827268 169.155185,827.827268 C162.007925,827.827268 156.471316,824.706634 153.451347,819.472022 L153.451347,826.518615 Z M182.040385,802.056868 C182.040385,791.587643 176.503775,785.044378 167.745866,785.044378 C159.390619,785.044378 153.350681,791.587643 153.350681,802.056868 C153.350681,812.526093 159.390619,819.371356 167.745866,819.371356 C176.40311,819.371356 182.040385,812.526093 182.040385,802.056868 Z M223.573344,785.346375 C215.922757,785.346375 208.876163,790.98365 208.876163,802.2582 C208.876163,813.331418 215.822091,819.27069 223.67401,819.27069 C232.733916,819.27069 236.055882,813.130087 237.163204,809.304793 L245.518451,812.928756 C243.203141,819.874684 236.257213,828.0286 223.67401,828.0286 C209.580822,828.0286 199.212263,816.955381 199.212263,802.2582 C199.212263,787.158356 209.782154,776.588465 223.573344,776.588465 C236.458544,776.588465 243.102476,784.641715 245.115788,791.990306 L236.55921,795.614268 C235.351222,790.882984 231.827926,785.346375 223.573344,785.346375 Z M261.180344,802.157534 C261.180344,812.123431 266.314291,819.472022 275.374198,819.472022 C284.031441,819.472022 289.366719,811.9221 289.366719,801.956203 C289.366719,791.990306 284.132107,785.145043 275.474863,785.145043 C266.817619,785.145043 261.180344,792.191637 261.180344,802.157534 Z M289.467385,819.97535 L289.467385,819.170025 C287.152076,823.800643 282.018129,827.827268 274.468207,827.827268 C260.274354,827.827268 251.516444,816.552718 251.516444,802.157534 C251.516444,788.467009 260.777682,776.789796 274.468207,776.789796 C283.024785,776.789796 287.655404,781.017753 289.266054,784.943712 L289.266054,753.636702 L298.627957,753.636702 L298.627957,817.559375 C298.627957,822.189993 299.03062,825.71329 299.131285,826.518615 L289.970713,826.518615 C289.769382,825.411293 289.467385,822.894653 289.467385,819.97535 Z M320.329788,797.325584 L346.804848,797.325584 C346.603517,790.379656 342.073563,784.943712 333.516985,784.943712 C325.564401,784.943712 320.732451,791.084315 320.329788,797.325584 Z M348.214167,809.908787 L356.368082,812.727425 C353.65011,821.284003 345.898857,828.0286 334.624307,828.0286 C321.638441,828.0286 310.263226,818.566031 310.263226,802.157534 C310.263226,786.957025 321.235779,776.588465 333.41632,776.588465 C348.314832,776.588465 356.670079,786.856359 356.670079,801.956203 C356.670079,803.16419 356.569413,804.372178 356.468748,804.976171 L320.027791,804.976171 C320.229123,813.633415 326.470391,819.673353 334.624307,819.673353 C342.476226,819.673353 346.402185,815.344731 348.214167,809.908787 Z M392.565764,786.655028 L380.888551,786.655028 L380.888551,826.518615 L371.123985,826.518615 L371.123985,786.655028 L362.164745,786.655028 L362.164745,778.098449 L371.123985,778.098449 L371.123985,769.944534 C371.123985,759.173312 378.271245,753.334706 387.029154,753.334706 C390.250454,753.334706 392.263767,754.039365 392.666429,754.341362 L392.666429,762.797274 C392.163101,762.595943 390.955114,762.193281 388.539139,762.193281 C385.217173,762.193281 380.888551,763.803931 380.888551,770.447862 L380.888551,778.098449 L392.565764,778.098449 L392.565764,786.655028 Z M396.65111,829.135922 L405.811682,827.021943 C406.516342,833.76654 411.650289,838.900487 418.998879,838.900487 C429.166107,838.900487 433.796726,833.665875 433.796726,823.19665 L433.796726,816.250722 C431.481417,820.680009 426.246804,824.203306 418.998879,824.203306 C406.113679,824.203306 396.751776,814.43874 396.751776,800.748215 C396.751776,787.661684 405.711017,777.192459 418.998879,777.192459 C426.448135,777.192459 431.481417,780.011096 433.897392,784.843046 L433.897392,778.098449 L443.259295,778.098449 L443.259295,822.894653 C443.259295,835.175859 437.219357,847.155069 418.998879,847.155069 C406.919004,847.155069 397.859098,839.504481 396.65111,829.135922 Z M420.408198,816.250722 C428.562114,816.250722 434.199389,810.110118 434.199389,800.748215 C434.199389,791.386312 428.562114,785.245709 420.408198,785.245709 C412.052951,785.245709 406.415676,791.386312 406.415676,800.748215 C406.415676,810.210784 411.85162,816.250722 420.408198,816.250722 Z M467.276436,798.030243 L467.276436,826.518615 L457.813867,826.518615 L457.813867,753.636702 L467.276436,753.636702 L467.276436,783.735724 C470.799732,778.601778 476.437007,776.689131 481.973617,776.689131 C493.550164,776.689131 499.288104,785.044378 499.288104,795.8156 L499.288104,826.518615 L489.825536,826.518615 L489.825536,797.42625 C489.825536,790.681653 487.006898,785.245709 478.550986,785.245709 C471.303061,785.245709 467.477767,790.882984 467.276436,798.030243 Z M523.20458,826.518615 L513.842676,826.518615 L513.842676,778.098449 L523.20458,778.098449 L523.20458,826.518615 Z M511.728698,759.777306 C511.728698,755.952012 514.748667,752.932043 518.473295,752.932043 C522.298589,752.932043 525.318558,755.952012 525.318558,759.777306 C525.318558,763.501934 522.298589,766.521903 518.473295,766.521903 C514.748667,766.521903 511.728698,763.501934 511.728698,759.777306 Z M538.765808,831.753228 L538.765808,778.098449 L548.228376,778.098449 L548.228376,832.15589 C548.228376,840.9138 543.195095,847.155069 534.839848,847.155069 C531.215886,847.155069 529.806567,846.65174 529.202573,846.450409 L529.202573,838.497825 C529.705901,838.59849 530.813223,838.799822 532.222542,838.799822 C537.155158,838.799822 538.765808,836.182515 538.765808,831.753228 Z M536.651829,759.575974 C536.651829,755.750681 539.671798,752.730712 543.396426,752.730712 C547.22172,752.730712 550.241689,755.750681 550.241689,759.575974 C550.241689,763.300603 547.22172,766.320571 543.396426,766.320571 C539.671798,766.320571 536.651829,763.300603 536.651829,759.575974 Z M607.176489,778.098449 L586.540036,798.533571 L607.579152,826.518615 L595.700608,826.518615 L579.896105,805.177503 L573.151508,811.9221 L573.151508,826.518615 L563.789604,826.518615 L563.789604,753.636702 L573.151508,753.636702 L573.151508,799.540228 L594.089958,778.098449 L607.176489,778.098449 Z M625.556355,826.518615 L616.093786,826.518615 L616.093786,753.636702 L625.556355,753.636702 L625.556355,826.518615 Z M650.479486,826.518615 L641.117583,826.518615 L641.117583,778.098449 L650.177489,778.098449 L650.177489,784.541049 C653.197458,779.205771 659.237395,776.689131 664.87467,776.689131 C670.914608,776.689131 676.753214,779.608434 679.37052,785.849703 C683.195814,778.903774 689.437083,776.689131 695.577686,776.689131 C704.033599,776.689131 712.28818,782.427071 712.28818,795.11094 L712.28818,826.518615 L702.926277,826.518615 L702.926277,796.117596 C702.926277,789.775662 699.805642,785.044378 692.658383,785.044378 C686.014452,785.044378 681.484499,790.27899 681.484499,797.224918 L681.484499,826.518615 L672.02193,826.518615 L672.02193,796.117596 C672.02193,789.876328 669.001961,785.044378 661.754036,785.044378 C655.009439,785.044378 650.479486,790.077659 650.479486,797.325584 L650.479486,826.518615 Z M736.305321,798.533571 L736.305321,826.518615 L726.842752,826.518615 L726.842752,778.098449 L736.103989,778.098449 L736.103989,785.044378 C739.627286,779.00444 745.365227,776.689131 751.002502,776.689131 C762.579049,776.689131 768.31699,785.044378 768.31699,795.8156 L768.31699,826.518615 L758.854421,826.518615 L758.854421,797.42625 C758.854421,790.681653 756.035783,785.245709 747.579871,785.245709 C740.130614,785.245709 736.305321,791.184981 736.305321,798.533571 Z M803.60868,819.572687 C811.66193,819.572687 818.708524,813.53275 818.708524,802.2582 C818.708524,791.084315 811.66193,785.044378 803.60868,785.044378 C795.55543,785.044378 788.508836,791.084315 788.508836,802.2582 C788.508836,813.53275 795.55543,819.572687 803.60868,819.572687 Z M803.60868,776.588465 C818.10453,776.588465 828.372424,787.561018 828.372424,802.2582 C828.372424,817.056047 818.10453,828.0286 803.60868,828.0286 C789.11283,828.0286 778.844936,817.056047 778.844936,802.2582 C778.844936,787.561018 789.11283,776.588465 803.60868,776.588465 Z M849.26893,845.645084 L839.907027,845.645084 L839.907027,778.098449 L849.067599,778.098449 L849.067599,785.648371 C851.684905,780.816421 857.422846,776.991128 865.274765,776.991128 C879.770615,776.991128 887.521868,788.165012 887.521868,802.2582 C887.521868,816.653384 879.166621,827.827268 864.972768,827.827268 C857.523512,827.827268 851.886237,824.303972 849.26893,819.97535 L849.26893,845.645084 Z M877.857968,802.2582 C877.857968,792.5943 872.422024,785.346375 863.563449,785.346375 C854.906205,785.346375 849.168265,792.5943 849.168265,802.2582 C849.168265,812.224097 854.906205,819.371356 863.563449,819.371356 C872.321359,819.371356 877.857968,812.224097 877.857968,802.2582 Z M942.443356,845.645084 L933.081453,845.645084 L933.081453,819.673353 C930.564812,824.605968 925.128868,827.827268 917.981609,827.827268 C904.089752,827.827268 895.029846,816.250722 895.029846,802.157534 C895.029846,788.467009 903.586424,776.890462 917.780278,776.890462 C926.135524,776.890462 931.269471,781.219084 933.282784,785.547706 L933.282784,778.098449 L942.443356,778.098449 L942.443356,845.645084 Z M904.693746,802.157534 C904.693746,812.123431 910.230356,819.472022 918.887599,819.472022 C927.444178,819.472022 933.182118,812.123431 933.182118,802.157534 C933.182118,792.191637 927.444178,785.245709 918.887599,785.245709 C910.12969,785.245709 904.693746,792.191637 904.693746,802.157534 Z M983.87565,777.595121 L983.87565,787.661684 C982.466331,787.460353 981.057012,787.359687 979.748359,787.359687 C971.795775,787.359687 966.460496,791.587643 966.460496,802.2582 L966.460496,826.518615 L956.997928,826.518615 L956.997928,778.098449 L966.259165,778.098449 L966.259165,786.554362 C969.782462,779.105106 975.8224,777.293124 980.755015,777.293124 C982.063668,777.293124 983.372322,777.494456 983.87565,777.595121 Z M988.866987,813.935412 L997.423565,810.915443 C998.027559,815.948725 1001.85285,819.97535 1008.69812,819.97535 C1014.03339,819.97535 1016.9527,816.955381 1016.9527,813.53275 C1016.9527,810.512781 1014.73805,808.197471 1010.71143,807.291481 L1002.45685,805.4795 C994.906925,803.86885 990.376971,798.734903 990.376971,791.88964 C990.376971,783.635059 998.128225,776.588465 1007.59079,776.588465 C1020.87866,776.588465 1025.00595,785.245709 1026.0126,789.574331 L1017.65736,792.694965 C1017.25469,790.178325 1015.24138,784.641715 1007.59079,784.641715 C1002.75884,784.641715 999.537543,787.76235 999.537543,791.084315 C999.537543,794.003618 1001.34952,796.117596 1005.07415,796.922921 L1012.92607,798.634237 C1021.68398,800.546884 1026.3146,805.882162 1026.3146,813.029422 C1026.3146,819.874684 1020.57666,828.0286 1008.59745,828.0286 C995.309587,828.0286 989.672312,819.472022 988.866987,813.935412 Z M1051.0364,762.797274 L1051.0364,778.098449 L1061.50562,778.098449 L1061.50562,786.655028 L1051.0364,786.655028 L1051.0364,811.821434 C1051.0364,816.250722 1052.84838,818.465365 1057.781,818.465365 C1058.98898,818.465365 1060.7003,818.264034 1061.50562,818.062703 L1061.50562,826.115953 C1060.7003,826.41795 1058.28432,827.021943 1055.06302,827.021943 C1046.80844,827.021943 1041.57383,821.988662 1041.57383,813.230753 L1041.57383,786.655028 L1032.31259,786.655028 L1032.31259,778.098449 L1034.9299,778.098449 C1040.16451,778.098449 1042.37916,774.877149 1042.37916,770.649193 L1042.37916,762.797274 L1051.0364,762.797274 Z M1105.45456,820.680009 C1102.83725,825.71329 1096.79732,828.0286 1091.16004,828.0286 C1079.88549,828.0286 1073.04023,819.572687 1073.04023,808.600134 L1073.04023,778.098449 L1082.5028,778.098449 L1082.5028,807.190815 C1082.5028,813.834747 1085.52277,819.673353 1093.47535,819.673353 C1101.12594,819.673353 1104.95123,814.640072 1104.95123,807.291481 L1104.95123,778.098449 L1114.4138,778.098449 L1114.4138,817.559375 C1114.4138,821.384668 1114.7158,824.8073 1114.91713,826.518615 L1105.85722,826.518615 C1105.65589,825.411293 1105.45456,822.693322 1105.45456,820.680009 Z M1171.44927,778.098449 L1152.12147,826.518615 L1142.55823,826.518615 L1122.92843,778.098449 L1133.59899,778.098449 L1147.39018,815.445397 L1161.28204,778.098449 L1171.44927,778.098449 Z M1207.74761,778.098449 L1217.51218,778.098449 L1230.09538,814.539406 L1240.76594,778.098449 L1250.73183,778.098449 L1235.028,826.518615 L1225.26343,826.518615 L1212.37823,789.674996 L1199.79503,826.518615 L1189.82913,826.518615 L1173.92396,778.098449 L1184.29252,778.098449 L1195.16441,814.539406 L1207.74761,778.098449 Z M1253.20653,826.518615 L1271.22568,801.855537 L1253.81053,778.098449 L1265.28641,778.098449 L1277.16495,795.11094 L1288.84216,778.098449 L1300.01605,778.098449 L1282.80223,801.855537 C1285.72153,805.781496 1297.70074,822.592656 1300.62004,826.518615 L1289.24483,826.518615 L1276.76229,808.7008 L1264.48108,826.518615 L1253.20653,826.518615 Z M1321.71788,846.752406 L1311.34932,846.752406 L1323.42919,821.183337 L1302.59141,778.098449 L1313.4633,778.098449 L1328.56314,811.519437 L1343.05899,778.098449 L1353.22622,778.098449 L1321.71788,846.752406 Z M1396.57116,826.518615 L1357.71423,826.518615 L1357.71423,818.264034 L1384.28995,786.655028 L1358.11689,786.655028 L1358.11689,778.098449 L1396.06783,778.098449 L1396.06783,786.353031 L1369.49211,817.962037 L1396.57116,817.962037 L1396.57116,826.518615 Z" id="ABCDEFGHIJKLMNOPQRST" fill="#121212"></path>
            <path d="M111.918388,977.89335 L102.254488,977.89335 L102.254488,931.889159 L86.4499844,931.889159 L86.4499844,924.943231 C95.5098907,924.7419 101.751159,919.708618 103.261144,912.662025 L111.918388,912.662025 L111.918388,977.89335 Z M133.620219,936.117115 L123.754988,934.909128 C123.654322,934.003137 123.654322,933.097147 123.654322,932.291822 C123.654322,921.117937 131.908903,911.15204 146.203422,911.15204 C160.195944,911.15204 168.249194,920.312612 168.249194,931.1845 C168.249194,939.741078 163.417244,946.58634 155.967988,951.317625 L143.082788,959.572206 C139.35816,961.988181 136.036194,964.706153 135.130203,968.732778 L168.651857,968.732778 L168.651857,977.89335 L122.949663,977.89335 C123.150994,967.222794 127.37895,959.068878 138.452169,951.921619 L149.324056,944.875025 C155.46466,940.949065 158.283297,936.318447 158.283297,931.285165 C158.283297,925.345893 154.256672,919.809284 146.002091,919.809284 C137.445513,919.809284 133.418888,925.748556 133.418888,933.197812 C133.418888,934.103803 133.519553,935.110459 133.620219,936.117115 Z M194.782975,947.592997 L189.951025,939.439081 L209.17816,921.721931 L177.971816,921.721931 L177.971816,912.662025 L222.264691,912.662025 L222.264691,921.5206 L203.64155,938.734422 C213.204785,938.734422 223.774676,945.177022 223.774676,958.56555 C223.774676,969.538103 215.318763,979.504 200.118253,979.504 C185.01841,979.504 176.461831,969.638769 175.857838,958.968212 L185.521738,956.753569 C185.9244,965.410812 192.165669,970.846756 200.017588,970.846756 C208.976829,970.846756 213.808779,965.310147 213.808779,958.766881 C213.808779,950.210303 206.963516,946.58634 200.520916,946.58634 C198.507603,946.58634 196.494291,946.989003 194.782975,947.592997 Z M230.779325,963.196169 L230.779325,951.820953 L258.764369,912.662025 L272.354229,912.662025 L272.354229,954.035597 L283.528113,954.035597 L283.528113,963.196169 L272.354229,963.196169 L272.354229,977.89335 L262.790994,977.89335 L262.790994,963.196169 L230.779325,963.196169 Z M262.790994,954.035597 L262.790994,922.124593 L239.839232,954.035597 L262.790994,954.035597 Z M288.016122,960.1762 L297.478691,957.357562 C298.082685,965.410812 304.021957,970.846756 312.175873,970.846756 C319.927126,970.846756 326.168395,965.712809 326.168395,957.659559 C326.168395,948.700319 319.625129,944.170365 312.075207,944.170365 C307.444588,944.170365 303.015301,945.982347 300.196663,948.90165 C296.774032,947.592997 293.854729,946.284344 290.532763,945.076356 L298.988676,912.662025 L333.41632,912.662025 L333.41632,921.721931 L305.531941,921.721931 L300.699991,940.445737 C303.619294,937.224437 308.853907,935.613787 313.987854,935.613787 C326.772388,935.613787 336.134291,943.767703 336.134291,957.256897 C336.134291,969.538103 326.671723,979.504 312.175873,979.504 C298.284016,979.504 288.922113,970.444094 288.016122,960.1762 Z M391.96177,914.776003 L388.941801,922.829253 C386.525826,921.419934 382.197204,920.010615 377.264588,920.010615 C363.674729,920.010615 355.118151,929.976512 354.312826,943.36504 C356.930132,939.036419 362.869404,934.909128 371.526648,934.909128 C384.411848,934.909128 393.874417,942.962378 393.874417,957.156231 C393.874417,971.148753 382.499201,979.403334 369.714667,979.403334 C357.232129,979.403334 344.246263,970.746091 344.246263,949.203647 C344.246263,924.943231 358.842779,911.15204 377.868582,911.15204 C383.807854,911.15204 388.941801,912.662025 391.96177,914.776003 Z M355.722145,957.156231 C355.722145,965.712809 362.668073,970.846756 369.815332,970.846756 C377.46592,970.846756 383.90852,965.813475 383.90852,957.156231 C383.90852,948.398322 377.365254,943.36504 369.815332,943.36504 C362.26541,943.36504 355.722145,948.398322 355.722145,957.156231 Z M445.574604,912.662025 L445.574604,922.124593 C439.534667,926.956543 421.112857,943.36504 417.992223,977.89335 L407.824995,977.89335 C410.744298,939.942409 434.702717,921.721931 434.702717,921.721931 L397.959763,921.721931 L397.959763,912.662025 L445.574604,912.662025 Z M473.719036,940.445737 C480.664964,940.345072 485.798911,936.117115 485.798911,929.775181 C485.798911,923.936575 481.067626,919.305956 473.719036,919.305956 C466.370445,919.305956 461.639161,923.936575 461.639161,929.775181 C461.639161,936.117115 466.773107,940.345072 473.719036,940.445737 Z M473.719036,970.846756 C482.476945,970.846756 487.409561,966.014806 487.409561,959.874203 C487.409561,953.632934 482.376279,948.700319 473.719036,948.700319 C465.061792,948.700319 460.028511,953.632934 460.028511,959.874203 C460.028511,966.014806 464.961126,970.846756 473.719036,970.846756 Z M473.719036,979.403334 C458.719857,979.403334 450.062614,971.148753 450.062614,960.679528 C450.062614,952.726944 455.498557,946.888337 462.444486,944.573028 C456.505214,942.358384 451.773929,936.519778 451.773929,929.271853 C451.773929,918.601297 461.236498,911.15204 473.719036,911.15204 C486.201573,911.15204 495.664142,918.601297 495.664142,929.271853 C495.664142,936.318447 491.033523,942.358384 484.993586,944.573028 C491.939514,946.787672 497.375458,952.726944 497.375458,960.679528 C497.375458,971.148753 488.718214,979.403334 473.719036,979.403334 Z M507.098079,975.578041 L510.319379,967.424125 C513.138017,969.135441 517.969967,970.544759 522.197923,970.544759 C538.002426,970.544759 544.445026,960.1762 544.847689,947.391665 C542.53238,951.720287 536.794439,955.746912 527.935864,955.746912 C516.661314,955.746912 505.386764,948.096325 505.386764,933.70114 C505.386764,920.211947 516.661314,911.15204 529.445848,911.15204 C542.230383,911.15204 554.813586,920.312612 554.813586,941.150397 C554.813586,965.108816 544.14303,979.403334 522.197923,979.403334 C517.164642,979.403334 510.319379,977.792684 507.098079,975.578041 Z M543.539036,933.499809 C543.539036,925.043897 536.593108,919.809284 529.445848,919.809284 C522.197923,919.809284 515.352661,924.943231 515.352661,933.499809 C515.352661,942.358384 521.996592,947.291 529.445848,947.291 C536.693773,947.291 543.539036,942.157053 543.539036,933.499809 Z M573.596114,945.277687 C573.596114,955.243584 575.408095,962.290178 579.334055,966.417469 C581.850695,969.034775 585.071995,970.645425 589.702614,970.645425 C594.333233,970.645425 597.554533,969.034775 600.071174,966.417469 C603.997133,962.290178 605.809114,955.243584 605.809114,945.277687 C605.809114,935.31179 603.997133,928.265197 600.071174,924.137906 C597.554533,921.5206 594.333233,919.90995 589.702614,919.90995 C585.071995,919.90995 581.850695,921.5206 579.334055,924.137906 C575.408095,928.265197 573.596114,935.31179 573.596114,945.277687 Z M563.831548,945.277687 C563.831548,936.318447 565.341533,928.063865 569.670155,921.621265 C573.898111,915.279331 580.441377,911.15204 589.702614,911.15204 C598.963852,911.15204 605.507117,915.279331 609.735074,921.621265 C614.063695,928.063865 615.57368,936.318447 615.57368,945.277687 C615.57368,954.236928 614.063695,962.491509 609.735074,968.934109 C605.507117,975.276044 598.963852,979.403334 589.702614,979.403334 C580.441377,979.403334 573.898111,975.276044 569.670155,968.934109 C565.341533,962.491509 563.831548,954.236928 563.831548,945.277687 Z" id="1234567890" fill="#121212"></path>
        </g>
    </g>
</svg>