<?xml version="1.0" encoding="UTF-8"?>
<svg width="1920px" height="1080px" viewBox="0 0 1920 1080" version="1.1" xmlns="http://www.w3.org/2000/svg" xmlns:xlink="http://www.w3.org/1999/xlink" style="background: #F1EDEF;">
    <!-- Generator: Sketch 48.2 (47327) - http://www.bohemiancoding.com/sketch -->
    <title>Artboard Copy 24</title>
    <desc>Created with Sketch.</desc>
    <defs></defs>
    <g id="Page-1" stroke="none" stroke-width="1" fill="none" fill-rule="evenodd">
        <g id="Artboard-Copy-24">
            <path d="M92.648,129.998 L99.318,129.998 C105.344,129.998 110.404,125.95 110.404,117.762 C110.404,109.528 105.436,105.388 99.41,105.388 L92.648,105.388 L92.648,129.998 Z M99.456,134 L88.14,134 L88.14,101.386 L99.548,101.386 C107.828,101.386 115.05,107.044 115.05,117.762 C115.05,128.434 107.736,134 99.456,134 Z M124.874833,120.982 L124.874833,134 L120.550833,134 L120.550833,100.696 L124.874833,100.696 L124.874833,114.45 C126.484833,112.104 129.060833,111.23 131.590833,111.23 C136.880833,111.23 139.502833,115.048 139.502833,119.97 L139.502833,134 L135.178833,134 L135.178833,120.706 C135.178833,117.624 133.890833,115.14 130.026833,115.14 C126.714833,115.14 124.966833,117.716 124.874833,120.982 Z M144.773667,128.066 C144.773667,124.11 147.671667,121.902 151.489667,121.35 L157.469667,120.476 C158.803667,120.292 159.171667,119.602 159.171667,118.82 C159.171667,116.658 157.745667,114.864 154.387667,114.864 C151.351667,114.864 149.649667,116.75 149.373667,119.326 L145.233667,118.36 C145.693667,114.128 149.511667,111.184 154.295667,111.184 C160.919667,111.184 163.495667,114.956 163.495667,119.28 L163.495667,130.366 C163.495667,132.298 163.679667,133.448 163.771667,134 L159.539667,134 C159.447667,133.448 159.309667,132.62 159.309667,131.01 C158.343667,132.574 156.135667,134.69 152.179667,134.69 C147.671667,134.69 144.773667,131.562 144.773667,128.066 Z M152.777667,131.056 C156.319667,131.056 159.171667,129.354 159.171667,124.524 L159.171667,123.512 L152.409667,124.524 C150.569667,124.8 149.189667,125.858 149.189667,127.836 C149.189667,129.492 150.569667,131.056 152.777667,131.056 Z M182.2445,111.644 L182.2445,116.244 C181.6005,116.152 180.9565,116.106 180.3585,116.106 C176.7245,116.106 174.2865,118.038 174.2865,122.914 L174.2865,134 L169.9625,134 L169.9625,111.874 L174.1945,111.874 L174.1945,115.738 C175.8045,112.334 178.5645,111.506 180.8185,111.506 C181.4165,111.506 182.0145,111.598 182.2445,111.644 Z M190.873334,134 L186.595334,134 L186.595334,111.874 L190.735334,111.874 L190.735334,114.818 C192.115334,112.38 194.875334,111.23 197.451334,111.23 C200.211334,111.23 202.879334,112.564 204.075334,115.416 C205.823334,112.242 208.675334,111.23 211.481334,111.23 C215.345334,111.23 219.117334,113.852 219.117334,119.648 L219.117334,134 L214.839334,134 L214.839334,120.108 C214.839334,117.21 213.413334,115.048 210.147334,115.048 C207.111334,115.048 205.041334,117.44 205.041334,120.614 L205.041334,134 L200.717334,134 L200.717334,120.108 C200.717334,117.256 199.337334,115.048 196.025334,115.048 C192.943334,115.048 190.873334,117.348 190.873334,120.66 L190.873334,134 Z M224.388167,128.066 C224.388167,124.11 227.286167,121.902 231.104167,121.35 L237.084167,120.476 C238.418167,120.292 238.786167,119.602 238.786167,118.82 C238.786167,116.658 237.360167,114.864 234.002167,114.864 C230.966167,114.864 229.264167,116.75 228.988167,119.326 L224.848167,118.36 C225.308167,114.128 229.126167,111.184 233.910167,111.184 C240.534167,111.184 243.110167,114.956 243.110167,119.28 L243.110167,130.366 C243.110167,132.298 243.294167,133.448 243.386167,134 L239.154167,134 C239.062167,133.448 238.924167,132.62 238.924167,131.01 C237.958167,132.574 235.750167,134.69 231.794167,134.69 C227.286167,134.69 224.388167,131.562 224.388167,128.066 Z M232.392167,131.056 C235.934167,131.056 238.786167,129.354 238.786167,124.524 L238.786167,123.512 L232.024167,124.524 C230.184167,124.8 228.804167,125.858 228.804167,127.836 C228.804167,129.492 230.184167,131.056 232.392167,131.056 Z M289.531834,134 L285.897834,134 L285.483834,129.4 C284.057834,131.976 280.515834,134.69 275.041834,134.69 C266.853834,134.69 259.217834,128.71 259.217834,117.67 C259.217834,106.63 267.313834,100.696 275.363834,100.696 C282.447834,100.696 287.921834,104.652 289.807834,110.54 L285.713834,112.288 C284.241834,107.596 280.423834,104.836 275.363834,104.836 C269.521834,104.836 263.817834,109.022 263.817834,117.67 C263.817834,126.318 269.337834,130.596 275.179834,130.596 C282.447834,130.596 285.069834,125.444 285.253834,122.086 L273.937834,122.086 L273.937834,118.038 L289.531834,118.038 L289.531834,134 Z M305.244667,130.826 C308.924667,130.826 312.144667,128.066 312.144667,122.914 C312.144667,117.808 308.924667,115.048 305.244667,115.048 C301.564667,115.048 298.344667,117.808 298.344667,122.914 C298.344667,128.066 301.564667,130.826 305.244667,130.826 Z M305.244667,111.184 C311.868667,111.184 316.560667,116.198 316.560667,122.914 C316.560667,129.676 311.868667,134.69 305.244667,134.69 C298.620667,134.69 293.928667,129.676 293.928667,122.914 C293.928667,116.198 298.620667,111.184 305.244667,111.184 Z M327.397501,104.882 L327.397501,111.874 L332.181501,111.874 L332.181501,115.784 L327.397501,115.784 L327.397501,127.284 C327.397501,129.308 328.225501,130.32 330.479501,130.32 C331.031501,130.32 331.813501,130.228 332.181501,130.136 L332.181501,133.816 C331.813501,133.954 330.709501,134.23 329.237501,134.23 C325.465501,134.23 323.073501,131.93 323.073501,127.928 L323.073501,115.784 L318.841501,115.784 L318.841501,111.874 L320.037501,111.874 C322.429501,111.874 323.441501,110.402 323.441501,108.47 L323.441501,104.882 L327.397501,104.882 Z M342.006334,120.982 L342.006334,134 L337.682334,134 L337.682334,100.696 L342.006334,100.696 L342.006334,114.45 C343.616334,112.104 346.192334,111.23 348.722334,111.23 C354.012334,111.23 356.634334,115.048 356.634334,119.97 L356.634334,134 L352.310334,134 L352.310334,120.706 C352.310334,117.624 351.022334,115.14 347.158334,115.14 C343.846334,115.14 342.098334,117.716 342.006334,120.982 Z M367.563167,134 L363.285167,134 L363.285167,111.874 L367.563167,111.874 L367.563167,134 Z M362.319167,103.502 C362.319167,101.754 363.699167,100.374 365.401167,100.374 C367.149167,100.374 368.529167,101.754 368.529167,103.502 C368.529167,105.204 367.149167,106.584 365.401167,106.584 C363.699167,106.584 362.319167,105.204 362.319167,103.502 Z M383.966001,115.186 C380.470001,115.186 377.250001,117.762 377.250001,122.914 C377.250001,127.974 380.424001,130.688 384.012001,130.688 C388.152001,130.688 389.670001,127.882 390.176001,126.134 L393.994001,127.79 C392.936001,130.964 389.762001,134.69 384.012001,134.69 C377.572001,134.69 372.834001,129.63 372.834001,122.914 C372.834001,116.014 377.664001,111.184 383.966001,111.184 C389.854001,111.184 392.890001,114.864 393.810001,118.222 L389.900001,119.878 C389.348001,117.716 387.738001,115.186 383.966001,115.186 Z M424.637668,134.69 C416.219668,134.69 408.445668,128.572 408.445668,117.67 C408.445668,106.768 416.541668,100.696 424.637668,100.696 C432.089668,100.696 437.333668,104.744 438.989668,111.046 L434.803668,112.518 C433.561668,107.596 429.973668,104.836 424.637668,104.836 C418.703668,104.836 413.045668,109.16 413.045668,117.67 C413.045668,126.18 418.703668,130.55 424.637668,130.55 C430.203668,130.55 433.699668,127.192 435.033668,122.73 L439.035668,124.202 C437.287668,130.32 432.135668,134.69 424.637668,134.69 Z M443.386501,131.056 C443.386501,129.4 444.812501,127.974 446.744501,127.974 C448.722501,127.974 450.470501,129.446 450.470501,132.344 C450.470501,138.416 446.514501,140.946 443.662501,141.314 L443.662501,138.922 C445.916501,138.416 447.434501,136.162 447.480501,133.954 C447.342501,134.046 446.974501,134.184 446.468501,134.184 C444.766501,134.184 443.386501,133.034 443.386501,131.056 Z M488.750168,134 L468.832168,134 L468.832168,101.386 L473.340168,101.386 L473.340168,129.768 L488.750168,129.768 L488.750168,134 Z M497.609001,134 L493.331001,134 L493.331001,111.874 L497.609001,111.874 L497.609001,134 Z M492.365001,103.502 C492.365001,101.754 493.745001,100.374 495.447001,100.374 C497.195001,100.374 498.575001,101.754 498.575001,103.502 C498.575001,105.204 497.195001,106.584 495.447001,106.584 C493.745001,106.584 492.365001,105.204 492.365001,103.502 Z M503.109835,135.196 L507.295835,134.23 C507.617835,137.312 509.963835,139.658 513.321835,139.658 C517.967835,139.658 520.083835,137.266 520.083835,132.482 L520.083835,129.308 C519.025835,131.332 516.633835,132.942 513.321835,132.942 C507.433835,132.942 503.155835,128.48 503.155835,122.224 C503.155835,116.244 507.249835,111.46 513.321835,111.46 C516.725835,111.46 519.025835,112.748 520.129835,114.956 L520.129835,111.874 L524.407835,111.874 L524.407835,132.344 C524.407835,137.956 521.647835,143.43 513.321835,143.43 C507.801835,143.43 503.661835,139.934 503.109835,135.196 Z M513.965835,129.308 C517.691835,129.308 520.267835,126.502 520.267835,122.224 C520.267835,117.946 517.691835,115.14 513.965835,115.14 C510.147835,115.14 507.571835,117.946 507.571835,122.224 C507.571835,126.548 510.055835,129.308 513.965835,129.308 Z M535.382668,120.982 L535.382668,134 L531.058668,134 L531.058668,100.696 L535.382668,100.696 L535.382668,114.45 C536.992668,112.104 539.568668,111.23 542.098668,111.23 C547.388668,111.23 550.010668,115.048 550.010668,119.97 L550.010668,134 L545.686668,134 L545.686668,120.706 C545.686668,117.624 544.398668,115.14 540.534668,115.14 C537.222668,115.14 535.474668,117.716 535.382668,120.982 Z M562.457501,104.882 L562.457501,111.874 L567.241501,111.874 L567.241501,115.784 L562.457501,115.784 L562.457501,127.284 C562.457501,129.308 563.285501,130.32 565.539501,130.32 C566.091501,130.32 566.873501,130.228 567.241501,130.136 L567.241501,133.816 C566.873501,133.954 565.769501,134.23 564.297501,134.23 C560.525501,134.23 558.133501,131.93 558.133501,127.928 L558.133501,115.784 L553.901501,115.784 L553.901501,111.874 L555.097501,111.874 C557.489501,111.874 558.501501,110.402 558.501501,108.47 L558.501501,104.882 L562.457501,104.882 Z" id="Dharma-Gothic-C,-Lig" fill="#AF0556"></path>
            <path d="M120.168,739 L117.702,708.312 L98.248,708.312 L96.056,739 L87.014,739 L101.81,547.2 L115.236,547.2 L130.306,739 L120.168,739 Z M102.632,648.854 L99.07,699.27 L117.154,699.27 L113.318,648.854 C110.578,613.234 108.934,587.478 108.112,562.544 C107.016,587.478 105.098,613.234 102.632,648.854 Z M140.444,739 L140.444,547.2 L163.734,547.2 C176.338,547.2 179.9,551.036 179.9,565.01 L179.9,620.906 C179.9,631.866 177.708,636.798 170.858,638.442 C177.708,639.812 179.9,644.744 179.9,655.156 L179.9,721.19 C179.9,735.164 176.338,739 163.734,739 L140.444,739 Z M161.816,642.826 L150.308,642.826 L150.308,729.958 L161.816,729.958 C169.214,729.958 169.762,727.218 169.762,719.272 L169.762,653.512 C169.762,645.566 169.214,642.826 161.816,642.826 Z M169.762,622.824 L169.762,566.928 C169.762,558.982 169.214,556.242 161.816,556.242 L150.308,556.242 L150.308,633.51 L161.816,633.51 C169.214,633.51 169.762,631.044 169.762,622.824 Z M202.094,565.558 L202.094,720.642 C202.094,728.588 202.642,731.328 210.314,731.328 L213.876,731.328 C221.274,731.328 221.822,728.588 221.822,720.642 L221.822,655.978 L231.138,655.978 L231.138,722.56 C231.138,736.534 227.576,740.37 214.972,740.37 L208.396,740.37 C195.792,740.37 192.23,736.534 192.23,722.56 L192.23,563.64 C192.23,549.666 195.792,545.83 208.396,545.83 L214.972,545.83 C227.576,545.83 231.138,549.666 231.138,563.64 L231.138,622.002 L221.822,622.002 L221.822,565.558 C221.822,557.612 221.274,554.872 213.876,554.872 L210.314,554.872 C202.642,554.872 202.094,557.612 202.094,565.558 Z M244.016,739 L244.016,547.2 L267.306,547.2 C279.91,547.2 283.472,551.036 283.472,565.01 L283.472,721.19 C283.472,735.164 279.91,739 267.306,739 L244.016,739 Z M253.88,729.958 L265.388,729.958 C272.786,729.958 273.334,727.218 273.334,719.272 L273.334,566.928 C273.334,558.982 272.786,556.242 265.388,556.242 L253.88,556.242 L253.88,729.958 Z M306.488,556.242 L306.488,633.784 L323.75,633.784 L323.75,643.1 L306.488,643.1 L306.488,729.958 L326.764,729.958 L326.764,739 L296.624,739 L296.624,547.2 L326.764,547.2 L326.764,556.242 L306.488,556.242 Z M346.766,556.242 L346.766,636.524 L363.48,636.524 L363.48,645.84 L346.766,645.84 L346.766,739 L336.902,739 L336.902,547.2 L366.22,547.2 L366.22,556.242 L346.766,556.242 Z M394.168,648.306 L394.168,639.264 L413.348,639.264 L413.348,722.56 C413.348,736.534 409.786,740.37 397.182,740.37 L390.606,740.37 C378.002,740.37 374.44,736.534 374.44,722.56 L374.44,563.64 C374.44,549.666 378.002,545.83 390.606,545.83 L397.182,545.83 C409.786,545.83 413.348,549.666 413.348,563.64 L413.348,622.002 L404.032,622.002 L404.032,565.558 C404.032,557.612 403.484,554.872 396.086,554.872 L392.524,554.872 C384.852,554.872 384.304,557.612 384.304,565.558 L384.304,720.642 C384.304,728.588 384.852,731.328 392.524,731.328 L396.086,731.328 C403.484,731.328 404.032,728.588 404.032,720.642 L404.032,648.306 L394.168,648.306 Z M436.09,739 L426.226,739 L426.226,547.2 L436.09,547.2 L436.09,633.784 L455.544,633.784 L455.544,547.2 L465.682,547.2 L465.682,739 L455.544,739 L455.544,643.1 L436.09,643.1 L436.09,739 Z M479.382,739 L479.382,547.2 L489.246,547.2 L489.246,739 L479.382,739 Z M508.152,655.978 L508.152,720.642 C508.152,728.588 508.7,731.328 516.372,731.328 L519.934,731.328 C527.332,731.328 527.88,728.588 527.88,720.642 L527.88,547.2 L537.744,547.2 L537.744,722.56 C537.744,736.534 534.182,740.37 521.578,740.37 L515.002,740.37 C502.398,740.37 498.836,736.534 498.836,722.56 L498.836,655.978 L508.152,655.978 Z M551.17,739 L551.17,547.2 L561.034,547.2 L561.034,636.25 C562.13,630.222 563.774,625.016 565.144,620.084 L584.872,547.2 L594.188,547.2 L568.98,637.62 L594.736,739 L584.324,739 L564.322,657.622 C562.952,652.416 562.13,647.758 561.034,642.004 L561.034,739 L551.17,739 Z M602.408,739 L602.408,547.2 L612.272,547.2 L612.272,729.958 L630.63,729.958 L630.63,739 L602.408,739 Z M682.416,610.768 L671.182,739 L661.592,739 L650.084,610.768 C649.536,602.274 648.44,585.56 647.344,572.682 C647.618,584.464 647.892,599.534 647.892,610.768 L647.892,739 L639.124,739 L639.124,547.2 L653.92,547.2 L664.606,670.5 C665.702,681.734 666.25,697.626 666.798,709.408 C667.62,697.352 667.894,681.734 668.99,670.5 L679.95,547.2 L694.472,547.2 L694.472,739 L684.608,739 L684.608,610.768 C684.608,599.808 684.882,585.012 685.156,573.504 C684.06,586.108 683.238,602.274 682.416,610.768 Z M738.038,739 L719.954,606.11 C718.584,595.698 717.214,582.272 716.118,572.134 C716.392,582.546 716.666,596.52 716.666,605.836 L716.666,739 L708.172,739 L708.172,547.2 L721.05,547.2 L737.216,666.116 C738.586,676.254 739.682,688.036 741.052,700.64 C740.778,686.666 740.504,675.706 740.504,666.39 L740.504,547.2 L748.998,547.2 L748.998,739 L738.038,739 Z M762.15,722.56 L762.15,563.64 C762.15,549.666 765.712,545.83 778.316,545.83 L785.44,545.83 C798.044,545.83 801.606,549.666 801.606,563.64 L801.606,722.56 C801.606,736.534 798.044,740.37 785.44,740.37 L778.316,740.37 C765.712,740.37 762.15,736.534 762.15,722.56 Z M791.742,720.642 L791.742,565.558 C791.742,557.612 791.194,554.872 783.796,554.872 L780.234,554.872 C772.562,554.872 772.014,557.612 772.014,565.558 L772.014,720.642 C772.014,728.588 772.562,731.328 780.234,731.328 L783.796,731.328 C791.194,731.328 791.742,728.588 791.742,720.642 Z M814.758,739 L814.758,547.2 L836.952,547.2 C849.556,547.2 853.118,551.036 853.118,565.01 L853.118,642.278 C853.118,655.978 849.556,659.814 836.952,659.814 L824.622,659.814 L824.622,739 L814.758,739 Z M824.622,651.046 L835.308,651.046 C842.706,651.046 843.254,648.306 843.254,640.36 L843.254,566.928 C843.254,558.982 842.706,556.242 835.308,556.242 L824.622,556.242 L824.622,651.046 Z M862.708,722.56 L862.708,563.64 C862.708,549.666 866.27,545.83 878.874,545.83 L885.998,545.83 C898.602,545.83 902.164,549.666 902.164,563.64 L902.164,722.56 C902.164,735.712 899.15,739.822 888.464,740.37 L888.464,748.042 C888.464,755.988 890.382,758.454 896.136,758.454 L898.602,758.454 L898.602,764.482 L894.218,764.482 C885.176,764.482 879.422,762.29 879.422,747.768 L879.422,740.37 L878.874,740.37 C866.27,740.37 862.708,736.534 862.708,722.56 Z M892.3,720.642 L892.3,565.558 C892.3,557.612 891.752,554.872 884.354,554.872 L880.792,554.872 C873.12,554.872 872.572,557.612 872.572,565.558 L872.572,720.642 C872.572,728.588 873.12,731.328 880.792,731.328 L884.354,731.328 C891.752,731.328 892.3,728.588 892.3,720.642 Z M954.772,658.444 L954.772,720.642 C954.772,727.492 955.046,733.794 956.69,739 L946.278,739 C944.908,735.712 944.634,729.136 944.634,722.834 L944.634,657.074 C944.634,649.128 943.538,645.84 936.14,645.84 L925.18,645.84 L925.18,739 L915.316,739 L915.316,547.2 L938.606,547.2 C951.21,547.2 954.772,551.036 954.772,565.01 L954.772,624.194 C954.772,634.88 952.854,639.538 946.278,641.182 C952.58,643.1 954.772,648.032 954.772,658.444 Z M944.634,626.112 L944.634,566.928 C944.634,558.982 944.086,556.242 936.688,556.242 L925.18,556.242 L925.18,636.524 L936.688,636.524 C944.086,636.524 944.634,634.058 944.634,626.112 Z M995.05,720.642 L995.05,680.09 C995.05,664.746 993.954,660.088 982.994,644.196 C969.294,623.92 967.102,617.618 967.102,597.616 L967.102,563.64 C967.102,549.666 970.664,545.83 983.268,545.83 L989.022,545.83 C1001.626,545.83 1005.188,549.666 1005.188,563.64 L1005.188,617.618 L995.872,617.618 L995.872,565.558 C995.872,557.612 995.324,554.872 987.926,554.872 L985.186,554.872 C977.514,554.872 976.966,557.612 976.966,565.558 L976.966,599.26 C976.966,614.878 978.336,619.536 989.022,635.428 C1002.996,655.704 1005.188,662.006 1005.188,681.734 L1005.188,722.56 C1005.188,736.534 1001.9,740.37 989.022,740.37 L983.268,740.37 C970.664,740.37 967.102,736.534 967.102,722.56 L967.102,661.732 L976.418,661.732 L976.418,720.642 C976.418,728.588 976.966,731.328 984.364,731.328 L987.104,731.328 C994.502,731.328 995.05,728.588 995.05,720.642 Z M1033.958,739 L1024.094,739 L1024.094,556.242 L1012.312,556.242 L1012.312,547.2 L1045.466,547.2 L1045.466,556.242 L1033.958,556.242 L1033.958,739 Z M1063.276,547.2 L1063.276,720.642 C1063.276,728.588 1063.824,731.328 1071.222,731.328 L1074.784,731.328 C1082.182,731.328 1082.73,728.588 1082.73,720.642 L1082.73,547.2 L1092.046,547.2 L1092.046,722.56 C1092.046,736.534 1088.758,740.37 1076.154,740.37 L1069.578,740.37 C1056.7,740.37 1053.412,736.534 1053.412,722.56 L1053.412,547.2 L1063.276,547.2 Z M1111.774,547.2 L1119.172,641.182 C1121.638,672.144 1123.282,696.804 1124.104,719.546 C1124.926,696.804 1126.296,672.144 1128.762,641.182 L1135.886,547.2 L1144.928,547.2 L1130.132,739 L1116.98,739 L1101.91,547.2 L1111.774,547.2 Z M1182.192,647.484 L1176.164,739 L1164.108,739 L1151.23,547.2 L1161.094,547.2 L1167.67,641.73 C1169.862,672.966 1170.684,695.982 1170.958,710.504 C1171.232,695.982 1172.328,672.966 1174.52,641.73 L1180.822,547.2 L1190.96,547.2 L1197.262,641.73 C1199.454,672.966 1200.55,695.982 1200.824,710.504 C1201.098,695.982 1202.742,672.966 1204.66,642.004 L1210.688,547.2 L1219.456,547.2 L1206.578,739 L1194.796,739 L1188.768,647.484 C1187.124,623.92 1186.028,599.26 1185.48,576.792 C1184.932,599.26 1183.836,623.92 1182.192,647.484 Z M1253.98,583.368 L1258.912,547.2 L1267.954,547.2 L1253.98,638.442 L1268.776,739 L1258.364,739 L1252.61,695.16 C1250.966,682.008 1247.952,662.828 1246.582,646.662 C1245.212,662.828 1243.02,682.008 1241.102,695.16 L1235.074,739 L1225.758,739 L1240.554,638.442 L1226.58,547.2 L1236.718,547.2 L1241.924,583.368 C1243.842,596.246 1246.582,615.426 1247.678,630.77 C1249.048,615.426 1252.336,596.246 1253.98,583.368 Z M1300.012,739 L1290.148,739 L1290.148,668.856 L1273.708,547.2 L1283.572,547.2 L1290.148,598.438 C1292.066,612.686 1294.532,632.962 1295.628,649.95 C1296.998,632.962 1299.19,612.686 1301.108,598.438 L1307.684,547.2 L1316.452,547.2 L1300.012,671.048 L1300.012,739 Z M1322.206,556.242 L1322.206,547.2 L1354.264,547.2 L1354.264,555.42 L1330.7,729.958 L1354.264,729.958 L1354.264,739 L1320.836,739 L1320.836,730.78 L1344.674,556.242 L1322.206,556.242 Z" id="ABCDEFGHIJKLMNOPQRST" fill="#121212"></path>
            <path d="M100.44,979 L91.124,979 L91.124,791.858 C93.316,791.858 96.056,789.666 96.056,787.2 L100.44,787.2 L100.44,979 Z M139.896,840.082 L139.896,804.462 C139.896,797.064 139.348,794.598 132.772,794.598 L129.21,794.598 C122.36,794.598 121.812,797.064 121.812,804.462 L121.812,863.098 L113.044,863.098 L113.044,802.544 C113.044,789.666 116.332,785.83 128.114,785.83 L134.416,785.83 C146.198,785.83 149.212,789.666 149.212,802.544 L149.212,838.712 C149.212,862.55 147.294,871.318 134.142,896.252 C123.182,917.35 121.538,925.022 121.538,945.572 L121.538,970.232 L149.76,970.232 L149.76,979 L112.222,979 L112.222,946.942 C112.222,923.104 114.414,914.336 127.292,889.402 C138.252,868.304 139.896,860.632 139.896,840.082 Z M168.118,804.462 L168.118,859.262 L159.35,859.262 L159.35,802.544 C159.35,789.666 162.638,785.83 174.694,785.83 L180.722,785.83 C192.504,785.83 195.518,789.666 195.518,802.544 L195.518,862.276 C195.518,872.14 193.6,876.524 187.572,878.168 C193.6,879.812 195.518,884.196 195.518,893.786 L195.518,963.656 C195.518,976.534 192.504,980.37 180.722,980.37 L174.694,980.37 C162.638,980.37 159.35,976.534 159.35,963.656 L159.35,896.8 L168.118,896.8 L168.118,961.738 C168.118,969.136 168.666,971.602 175.516,971.602 L179.078,971.602 C185.654,971.602 186.202,969.136 186.202,961.738 L186.202,892.142 C186.202,885.018 185.654,882.552 179.078,882.552 L165.104,882.552 L165.104,873.784 L179.078,873.784 C185.654,873.784 186.202,871.318 186.202,863.92 L186.202,804.462 C186.202,797.064 185.654,794.598 179.078,794.598 L175.516,794.598 C168.666,794.598 168.118,797.064 168.118,804.462 Z M226.754,787.2 L236.892,787.2 L236.892,931.598 L245.934,931.598 L245.934,939.544 L236.892,939.544 L236.892,979 L227.576,979 L227.576,939.544 L202.916,939.544 L202.916,932.146 L226.754,787.2 Z M210.588,931.598 L227.576,931.598 L227.576,880.36 C227.576,860.632 228.124,832.136 228.398,814.6 C226.206,832.136 222.37,860.358 219.082,880.086 L210.588,931.598 Z M272.786,840.63 L269.224,840.63 C263.196,840.63 261.004,845.014 261.004,852.412 L261.004,881.456 L252.236,881.456 L252.236,787.2 L286.76,787.2 L286.76,795.968 L261.004,795.968 L261.004,840.082 C262.648,835.424 265.936,832.41 272.786,832.41 L276.622,832.41 C285.664,832.41 288.404,836.246 288.404,846.384 L288.404,963.656 C288.404,976.534 285.39,980.37 273.608,980.37 L267.306,980.37 C255.524,980.37 252.236,976.534 252.236,963.656 L252.236,896.8 L261.004,896.8 L261.004,961.738 C261.004,969.136 261.826,971.602 268.402,971.602 L271.964,971.602 C278.54,971.602 279.088,969.136 279.088,961.738 L279.088,849.672 C279.088,843.096 278.54,840.63 272.786,840.63 Z M336.354,862.002 L336.354,963.656 C336.354,976.534 333.34,980.37 321.558,980.37 L314.708,980.37 C302.926,980.37 299.638,976.534 299.638,963.656 L299.638,802.544 C299.638,789.666 302.926,785.83 314.708,785.83 L321.01,785.83 C332.792,785.83 335.806,789.666 335.806,802.544 L335.806,838.164 L327.038,838.164 L327.038,804.462 C327.038,797.064 326.49,794.598 319.914,794.598 L316.352,794.598 C309.502,794.598 308.954,797.064 308.954,804.462 L308.954,855.7 C310.598,851.042 313.886,848.028 320.736,848.028 L324.572,848.028 C333.614,848.028 336.354,851.864 336.354,862.002 Z M320.736,856.248 L317.174,856.248 C311.146,856.248 308.954,860.632 308.954,868.03 L308.954,961.738 C308.954,969.136 309.502,971.602 316.352,971.602 L319.914,971.602 C326.49,971.602 327.038,969.136 327.038,961.738 L327.038,865.564 C327.038,858.714 326.49,856.248 320.736,856.248 Z M360.74,979 L350.602,979 L371.974,795.968 L343.204,795.968 L343.204,787.2 L380.468,787.2 L380.468,794.872 L360.74,979 Z M408.964,980.37 L402.114,980.37 C390.058,980.37 387.044,976.534 387.044,963.656 L387.044,891.868 C387.044,882.278 388.688,877.62 394.716,876.25 C388.688,874.606 387.044,870.222 387.044,860.358 L387.044,802.544 C387.044,789.666 390.058,785.83 402.114,785.83 L408.964,785.83 C420.472,785.83 423.76,789.666 423.76,802.544 L423.76,860.358 C423.76,870.222 421.842,874.606 415.814,876.25 C421.842,877.62 423.76,882.278 423.76,891.868 L423.76,963.656 C423.76,976.534 420.472,980.37 408.964,980.37 Z M414.444,961.738 L414.444,890.224 C414.444,882.826 413.896,880.36 407.32,880.36 L403.758,880.36 C396.908,880.36 396.36,882.826 396.36,890.224 L396.36,961.738 C396.36,969.136 396.908,971.602 403.758,971.602 L407.32,971.602 C413.896,971.602 414.444,969.136 414.444,961.738 Z M414.444,862.002 L414.444,804.462 C414.444,797.064 413.896,794.598 407.32,794.598 L403.758,794.598 C396.908,794.598 396.36,797.064 396.36,804.462 L396.36,862.002 C396.36,869.126 396.908,871.592 403.758,871.592 L407.32,871.592 C413.896,871.592 414.444,869.126 414.444,862.002 Z M455.27,971.602 C461.846,971.602 462.394,969.136 462.394,961.738 L462.394,908.308 C460.476,912.692 457.188,915.432 450.886,915.432 L446.776,915.432 C437.734,915.432 434.994,911.596 434.994,901.458 L434.994,802.544 C434.994,789.666 438.282,785.83 450.064,785.83 L456.914,785.83 C468.696,785.83 471.71,789.666 471.71,802.544 L471.71,963.656 C471.71,976.534 468.696,980.37 456.914,980.37 L450.612,980.37 C438.83,980.37 435.542,976.534 435.542,963.656 L435.542,925.296 L444.31,925.296 L444.31,961.738 C444.31,969.136 444.858,971.602 451.708,971.602 L455.27,971.602 Z M450.886,907.212 L454.448,907.212 C460.202,907.212 462.394,902.828 462.394,895.43 L462.394,804.462 C462.394,797.064 461.846,794.598 455.27,794.598 L451.708,794.598 C444.858,794.598 444.31,797.064 444.31,804.462 L444.31,897.896 C444.31,904.746 444.858,907.212 450.886,907.212 Z M520.208,802.544 L520.208,963.656 C520.208,976.534 516.92,980.37 505.412,980.37 L498.562,980.37 C486.78,980.37 483.492,976.534 483.492,963.656 L483.492,802.544 C483.492,789.666 486.78,785.83 498.562,785.83 L505.412,785.83 C516.92,785.83 520.208,789.666 520.208,802.544 Z M492.808,804.462 L492.808,961.738 C492.808,969.136 493.356,971.602 500.206,971.602 L503.768,971.602 C510.344,971.602 510.892,969.136 510.892,961.738 L510.892,804.462 C510.892,797.064 510.344,794.598 503.768,794.598 L500.206,794.598 C493.356,794.598 492.808,797.064 492.808,804.462 Z" id="1234567890" fill="#121212"></path>
        </g>
    </g>
</svg>